<svg xmlns="http://www.w3.org/2000/svg" xml:space="preserve" width="489.11813" height="96.097328" viewBox="0 0 489.11813 96.097327"><path d="M682.843 352.83c-.042 0-.074-.1-.074-.22s-.036-.22-.073-.22c-.043 0-.147-.031-.147-.07 0-.047-.098-.225-.222-.325-.124-.096-.424-.302-.424-.343 0-.039-.308-.12-.67-.083-.368.036-1.286-.098-1.286-.137 0-.043-.102-.135-.234-.113-.126.021-.468-.135-.525-.26-.057-.115-.203-.218-.327-.218-.116 0-.216-.04-.216-.074 0-.044-.032-.156-.068-.156-.04 0-.154-.031-.154-.072 0-.04-.123-.148-.278-.148-.146 0-.594.034-.594.074 0 .04-.203.123-.454.09-.257-.027-.842.09-.842.134 0 .04-.092.163-.21.188-.116.024-.657.216-.657.254 0 .04-.339.134-.755.116l-2.185.104c-.416-.035-.75-.035-.75.003 0 .042-.231.148-.52.148-.278 0-1.002.037-1.002.077 0 .037-.327.124-.732.09-.393-.023-1.439.089-1.439.13 0 .037-.096.145-.22.145-.118 0-.208.036-.208.075 0 .043-.166.15-.37.15-.196 0-.72-.035-.72-.074 0-.037-.067-.08-.159.003-.093.09-.707.036-.707-.003 0-.037-.093-.143-.204-.13-.11.015-.453-.057-.453-.093s-.159-.136-.364-.12c-.201.01-.719-.058-.719-.1 0-.038-.202-.142-.436-.136-.245.008-.861-.045-.861-.084 0-.042-.343-.12-.756-.092l-1.1-.106c-.417.032-.755.02-.755-.024 0-.04-.124-.135-.27-.11-.148.024-.598-.076-.598-.11 0-.042-.098-.148-.214-.148-.118 0-.222-.04-.222-.075 0-.044-.265-.137-.589-.113-.333.018-1.144-.074-1.144-.115 0-.039-.099-.148-.21-.153-.115 0-.477.053-.565.12l-.312.105c-.296.1-.332.093-.332.093-.413-.05-.752-.059-.752-.015 0 .04-.202.152-.442.152-.238 0-.86-.04-.86-.074 0-.044-.124-.156-.266-.156-.146 0-.6.018-.6.034 0 .016-.05.034-.116.008l-.106-.042c-.35-.123-.546-.095-.546-.095-.418.053-.75.13-.75.173 0 .04-.088.163-.19.175-.11.02-.469-.063-.469-.097 0-.044-.117-.162-.257-.166-.147-.012-.61.044-.61.088 0 .04-.266.126-.594.103-.328-.033-1.139.079-1.139.116 0 .043-.116.148-.265.148-.147 0-.6.037-.6.075 0 .04-.346.166-.758.188h-3.484c-.418-.023-.756-.065-.756-.11 0-.038-.122-.138-.264-.122-.148.017-.604-.063-.604-.097 0-.042-.097-.144-.22-.131-.121.019-.43-.057-.43-.092 0-.044-.099-.161-.226-.165-.124-.012-.426.044-.426.088 0 .04-.087.152-.198.152-.11 0-.454.029-.454.066 0 .043-.11.13-.252.103-.135-.021-.448.147-.51.27a.392.392 0 0 1-.325.22c-.117 0-.21.1-.21.222 0 .123-.035.221-.073.221-.037 0-.154.104-.166.226-.014.12-.226.66-.27.66-.037 0-.16.349-.185.773l-.019.679c.032.428.086.776.127.776.04 0 .144.12.144.264 0 .149.037.622.073.622.046 0 .124.098.091.212-.03.122.237.584.464.746.215.16.51.522.572.706.061.184.21.33.325.33.116 0 .214.036.214.073 0 .043.092.157.209.157.112 0 .443-.04.443-.075 0-.04.172-.094.393-.02.216.07.91.055.91.02 0-.04.215-.176.48-.198.257-.025 1.04-.215 1.04-.25 0-.037.158-.129.357-.104.196.027.729-.078.729-.117 0-.04.092-.144.216-.144.121 0 .22-.04.22-.081 0-.036.257-.13.573-.103.32.021 1.16-.084 1.16-.117 0-.04.124-.141.264-.13.151.011.603-.054.603-.093 0-.036.205-.125.441-.105.248.028.863-.076.863-.11 0-.046.1-.157.215-.157.124 0 .221-.03.221-.072 0-.04.21-.136.455-.117.248.016.841-.063.841-.11 0-.035.123-.138.276-.125.143.012.597-.053.597-.088 0-.039.339-.15.756-.15l4.996-.046c.426.026.775.01.788-.033.02-.043.184-.11.184-.07 0 .04.24.177.53.205.288.032 1.002-.11 1.013-.178.007-.06.42-.068.42-.026 0 .04.164.164.375.18.202.016.706-.066.706-.104 0-.043.087-.15.186-.15.102 0 .465.032.465.074 0 .04.3.125.664.092.363-.031 1.292.088 1.292.133 0 .035.116.145.264.145.143 0 .601.028.601.07 0 .04.279.182.615.232l.259-.08.129-.05c.048-.04.08-.056.08-.036 0 .025.29.087.65.087.357 0 1.305.028 1.305.07 0 .035.152.13.35.104.191-.02.958-.209.958-.256 0-.036.338-.14.756-.14l.88-.06c.412.028.75.087.75.128 0 .042.171.12.367.095.215-.032.765.144.819.259.049.114.208.246.332.246.116 0 .213.031.213.068 0 .04.277.114.61.075.338-.03 1.131.104 1.131.145 0 .04.1.146.215.146.116 0 .221.039.221.073 0 .043.024.16.066.16.046 0 .149.095.149.217s.1.264.223.336c.116.062.214.46.214.878l.078.906c-.042.418-.115.763-.151.763-.032 0-.136.197-.123.448.016.244-.057.885-.093.885-.043 0-.124.287-.084.631.03.35-.125 1.164-.193 1.19-.072.025-.062.4-.02.4.046 0 .149.103.149.235 0 .13.039.434.073.434.038 0 .135.104.118.232-.011.137.062.436.105.436.036 0 .141.097.141.22 0 .12.03.22.068.22.043 0 .147.102.147.22 0 .121.03.222.072.222.039 0 .143.032.143.074 0 .037.088.218.19.298.107.082.462.33.462.367 0 .043.117.184.258.225.147.04.394.176.394.216 0 .044.097.152.214.152.124 0 .22.034.22.075 0 .04.1.145.21.145.13 0 .222.036.222.075 0 .04.167.137.372.119.2-.012.716.065.716.101 0 .045.16.137.35.12.198-.027.736.067.736.108 0 .035.118.152.266.152.146.005.388-.043.388-.079 0-.038.092-.15.208-.15.124 0 .27-.1.331-.218.056-.125.21-.228.327-.228.117 0 .221-.025.234-.06.012-.032.048-.1.074-.109.024-.004.128-.148.128-.27 0-.122.03-.229.066-.229.039 0 .132-.089.099-.198-.023-.116.083-.463.124-.463.037 0 .141-.176.141-.39 0-.215.031-.715.075-.715.036 0 .128-.324.116-.712-.013-.386-.223-1.515-.259-1.515-.036 0-.149-.117-.149-.26 0-.139-.028-.403-.07-.403-.038 0-.162-.286-.18-.637-.017-.352.067-1.136.103-1.136.04 0 .147-.107.147-.228 0-.12.035-.223.076-.223.037 0 .115-.228.092-.522-.032-.296.08-1.03.124-1.03.036 0 .141-.098.141-.217 0-.12.035-.22.074-.22.036 0 .133-.22.11-.476-.007-.257.068-.868.104-.868.044 0 .179-.34.215-.764l-.067-2.457c0-.42-.097-.772-.142-.772m-17.954 3.116c-.036-.003-.042-.014-.018-.005.025 0 .093.005.093.016 0 0-.043 0-.075-.01M481.797 361.96c-.017-.257-.122-.536-.216-.617-.104-.078-.472-.331-.472-.371 0-.04-.172-.164-.386-.193-.216-.026-.688-.207-.688-.25 0-.042-.242-.133-.524-.113-.288.017-1.002-.075-1.002-.108 0-.041-.122-.161-.281-.181-.148-.016-.587.066-.587.102 0 .038-.114.151-.252.151-.141 0-.4-.039-.4-.072 0-.041-.342-.135-.754-.123l-4.136-.028c-.414 0-.756-.03-.756-.073 0-.035-.308-.107-.678-.067-.373.042-1.273-.11-1.273-.149 0-.037-.096-.156-.22-.156-.115 0-.213-.03-.213-.073 0-.038-.203-.136-.446-.122-.237.011-.86-.056-.86-.094 0-.042-.342-.154-.754-.154h-.872c-.424 0-.758-.033-.758-.069 0-.035-.345-.15-.764-.15l-1.529-.026c-.41.015-.75.063-.75.1 0 .041-.237.115-.529.083-.286-.04-.989.093-.989.132 0 .049-.099.156-.223.156-.114 0-.213.033-.213.072 0 .04-.117.145-.265.145-.146 0-.602-.03-.602-.073 0-.038-.289-.138-.64-.132-.349.009-1.314-.046-1.314-.084 0-.042-.339-.154-.756-.154l-5.434-.03c-.416.02-.756-.003-.756-.039 0-.035-.338-.117-.756-.084l-1.96-.092c-.418.015-.756-.008-.756-.047 0-.034-.098-.142-.222-.136-.13.007-.43.02-.43.063s-.234.147-.528.152c-.296 0-.997-.263-.997-.299 0-.041-.141-.25-.319-.369-.178-.12-.326-.33-.326-.45s-.03-.22-.072-.22c-.04 0-.063-.338.036-.751 0 0 .036-.147.036-.354v-.073c0-.085-.03-.156-.072-.156-.04 0-.139-.125-.124-.276.007-.155-.05-.607-.092-.607-.036 0-.13-.125-.116-.28.017-.142-.062-.613-.107-.613-.036 0-.152-.221-.176-.496-.015-.272-.216-1.281-.253-1.281-.042 0-.136-.247-.116-.547.012-.304-.346-1.003-.46-1.003-.126 0-.419-.253-.654-.558-.24-.304-.533-.556-.649-.556-.119 0-.272-.146-.327-.33-.062-.184-.277-.385-.485-.448a4.878 4.878 0 0 0-.55-.109c-.023-.003.038.039.194.092l-.352.13-.259.09c-.218-.047-.4-.055-.4-.016 0 .04-.084.123-.196.099-.117-.032-.496.149-.56.276-.058.113-.312.189-.566.152-.255-.039-.848.096-.848.134 0 .04-.084.215-.19.291-.104.073-.49.753-.534.753-.036 0-.128.123-.118.271.027.144-.06.617-.097.617-.036 0-.135.091-.121.2.01.114-.05.462-.092.462-.039 0-.142.125-.142.277 0 .152.03.615.067.615.036 0 .133.12.124.268-.007.15-.047.572-.124.517-.081-.053-.037.327 0 .327.036 0 .133.108.124.229-.013.128.053.437.09.437.045 0 .137.1.122.234-.01.128.056.432.093.432.044 0 .148.1.148.217 0 .127.038.23.08.23.036 0 .16.326.186.74.024.407-.075 1.25-.118 1.25-.037 0-.148.1-.148.227 0 .121-.03.22-.074.22-.036 0-.128.093-.098.2.02.11-.08.461-.117.461-.036 0-.13.096-.11.2.011.11-.06.468-.103.468-.039 0-.13.09-.124.197.012.118-.056.471-.092.471-.043 0-.138.197-.124.45.018.242.074.933.198.993.116.061.184.246.152.413-.03.17.092.585.13.585.044 0 .164.068.19.147.024.081.21.521.251.521.037 0 .143.1.143.218 0 .129.098.269.216.338.116.06.19.198.152.3-.036.104.498.508.498.546 0 .045.264.166.595.186.328.02 1.36.218 1.36.259 0 .043.097.15.227.15s.418.031.418.073c0 .037.343.178.763.21l.879-.005c.412-.029.75-.088.75-.129 0-.039.096-.15.222-.15.114 0 .213-.034.213-.073 0-.036.087-.161.19-.185.11-.02.678-.219.678-.257 0-.04.097-.147.221-.147a.37.37 0 0 0 .302-.172c.034-.092.225-.273.35-.273.115 0 .207-.035.207-.067 0-.048.345-.179.757-.215h.664c.412.036.756.09.756.131 0 .044.098.15.215.15.123 0 .215.033.215.073 0 .038.104.104.22.038.12-.061.381-.038.58.047.204.087 1.156.03 1.156-.01 0-.037.102-.147.22-.147.117 0 .21-.035.21-.067 0-.048.232-.144.522-.125.276.016 1.008-.066 1.008-.104 0-.04.234-.172.528-.196.29-.026 1.421-.214 1.421-.248 0-.043.337-.174.757-.198 0 0 1.787-.122 2.284.05l.106.036c.058.028.104.044.104.028 0-.018.121-.064.27-.06.148.006.387-.036.387-.08 0-.04.099-.147.215-.147.124 0 .214.03.214.072 0 .036.13.15.283.15.148 0 .59-.031.59-.074 0-.04.215-.09.475-.02.26.075 1.26.063 1.26.02 0-.04.227-.132.51-.112.27.023 1.008-.073 1.008-.108 0-.045.122-.159.265-.159.14-.004.607.043.607.077 0 .044.098.154.217.154.116 0 .213.03.213.072 0 .036-.158.138-.362.13l.582-.202c.324-.119.34-.119.34-.119.411.067.743.148.743.19 0 .037.165.143.364.131.21-.005.73-.04.744-.117.016-.07.197-.056.197-.013 0 .036.095.15.214.15.122 0 .222.03.222.073 0 .036.338.13.75.11l2.41.128c.41-.047.75-.056.75-.02 0 .043.225.135.51.11.282-.023 1 .074 1 .12 0 .036.123.142.271.142.147 0 .603.033.603.075 0 .044.054.077.13-.019.066-.095.735-.023.735.019 0 .044.099.15.221.15.118 0 .21.033.21.073 0 .038.265.128.597.1.319-.028 1.143.08 1.143.12 0 .04.097.153.221.153.117 0 .216.03.216.068 0 .045.268.135.595.113.332-.02 1.142.074 1.142.116 0 .034.24.167.547.187.303.027 1.527.119 1.668.041.145-.075.385-.42.392-.562.005-.142.31-.682.432-.74.116-.07.212-.21.212-.34 0-.116.101-.266.217-.331a.409.409 0 0 0 .223-.33c0-.126.03-.223.065-.223.043 0 .148-.106.148-.228 0-.135.031-.438.068-.438.044 0 .21-.612.184-.864M420.77 337.852c-.24-.184-.438-.436-.438-.559a.204.204 0 0 0-.233-.202c-.128.013-.419-.056-.419-.094 0-.036-.239-.124-.533-.098-.298.03-.984-.082-.984-.123 0-.04-.166-.16-.358-.177-.19-.016-.938-.227-.938-.27 0-.041-.123-.146-.272-.146-.151 0-.602.033-.602.073 0 .037-.116.147-.272.147-.145 0-.594-.031-.594-.074 0-.04-.302.026-.658.235 0 0-.074.041-.652-.161l-.386-.146c.238-.054.408-.097.374-.09-.044 0-.198.049-.198.089 0 .037-.232.133-.51.12-.289-.016-1.013.055-1.013.097 0 .047-.199.154-.444.154-.239 0-.859.034-.859.072 0 .044-.338.136-.749.122l-4.137.074c-.42-.024-.756-.01-.756.029 0 .037-.339.141-.758.141h-1.745c-.41 0-.756.039-.756.079 0 .041-.197.15-.435.15-.241 0-.866-.034-.866-.07 0-.043-.216-.148-.499-.12-.272.01-1.025-.07-1.025-.107 0-.036-.095-.098-.216-.036a.935.935 0 0 1-.48.074c-.15-.014-.74-.014-.906-.082-.15-.065-.344-.068-.344-.03 0 .038-.342.16-.76.18l-6.514-.038c-.42 0-.756-.03-.756-.068 0-.036-.348-.158-.758-.168l-3.27-.145c-.411-.03-.75-.09-.75-.128 0-.043-.338-.12-.754-.077l-2.19.034c-.417.063-.742.082-.742.043 0-.043-.284-.13-.616-.105-.331.022-1.124-.079-1.124-.122 0-.04-.088-.146-.198-.152-.098 0-.364.046-.35.106l-.326.12c-.945.336-2.501.11-2.501.11-.413-.062-.756-.082-.756-.04 0 .047-.079.154-.192.154-.11 0-.453.034-.453.072 0 .044-.276.157-.616.164-.331.01-1.119.241-1.119.281 0 .041-.148.164-.324.177-.18.027-.595.298-.652.419-.063.119-.308.265-.547.33-.238.062-.43.263-.43.451 0 .186-.092.871-.204 1.26-.11.398.186.744.166.907-.018.156.215.424.443.47.221.049.461.231.461.354 0 .12.226.405.51.628.282.225.577.583.577.703s.032.22.07.22c.035 0 .14.037.14.074 0 .038.153.248.326.376.183.116.332.322.332.436 0 .126.032.227.075.227.029 0 .128.145.109.316-.007.164.245.323.51.287l.173.064c.497.17-.567.385.214.218l.382-.089c-.086-.073-.166-.097-.166-.056 0 .039.146.172.334.21.176.037.772.254.792.365.022.118.213.678.244.678.045 0 .116.254.08.552-.043.295.106 1.01.148 1.01.038 0 .141.098.141.218a.39.39 0 0 0 .21.32c.117.048.22.227.22.346 0 .122.031.225.073.225.04 0 .064.135-.036.299-.1.17.062.854.185.918.123.063.264.362.327.666.06.305.201.558.317.558.124 0 .223.035.223.072 0 .043.097.148.214.148.123 0 .22.038.22.078 0 .037.092.144.216.144s.215.101.215.221c0 .128.039.225.081.225.036 0 .128.204.103.458-.016.253-.3.896-.717.926-.418.031-1.422-.089-1.422-.126 0-.043-.116-.139-.264-.126-.153.01-.601-.054-.601-.093 0-.04-.227-.13-.51-.105-.29.024-1.009-.082-1.009-.122 0-.034-.117-.157-.252-.165-.141-.009-.4.05-.4.093 0 .038-.066.184-.164.22l-.265.151-.332.16c-.3.032-.536.088-.536.127 0 .042-.148.306-.33.485-.18.188-.357.337-.395.337-.038 0-.146.098-.146.22 0 .124-.032.226-.074.226-.038 0-.142.029-.142.073 0 .039-.09.215-.197.299-.103.082-.46.325-.46.366 0 .04-.024.148-.067.148-.043 0-.186.09-.234.206-.05.114-.16.24-.204.24-.036 0-.106.344-.06.762.042.426.165 1.239.2 1.239.045 0 .125.085.1.197-.031.107.08.466.122.466.038 0 .143.03.143.073s.147.296.308.47c.173.171.785.597.785.635 0 .04.332.172.752.202l.662.01c.42-.036.749-.094.749-.137 0-.035.105-.144.223-.144.11 0 .214-.033.214-.072 0-.037.116-.156.266-.156.146 0 .6.039.6.075 0 .044.174.144.37.122.204-.013.719.062.719.1 0 .04.307.176.677.204.367.034 1.276-.086 1.276-.129 0-.035.106-.132.254-.121.136.017.448-.124.509-.25.056-.12.308-.218.567-.218.246 0 .84-.034.84-.072 0-.042.197-.154.44-.154.236 0 .857.031.857.07 0 .049.04.156.076.156.043 0 .153-.034.153-.072 0-.042.196-.154.442-.154.24 0 .854.031.854.07 0 .049.204.133.463.108.25-.024.884.138.94.249.055.119.35.244.625.244.29 0 1.01.03 1.01.07 0 .04.342.186.754.22l1.094-.045c.418-.012.764-.058.764-.101 0-.035.09-.144.216-.144.116 0 .214-.033.214-.072 0-.037.096-.1.214-.037.124.057.364.032.544-.063.17-.092.976-.017.976.019 0 .044.085.153.196.153.105 0 .46.03.46.07 0 .04.248.165.54.19.302.021.973-.073.973-.116 0-.035.092-.136.196-.123.11.01.461-.054.461-.093 0-.037.339-.179.75-.205h.878c.42.026.758.088.758.124 0 .044.098.153.213.153.119 0 .221.03.221.07 0 .04.339.12.75.086l1.324.157c.41-.05.754-.06.754-.024 0 .038.166.175.375.21.208.028.924.2.924.238 0 .038.337.148.75.148H408.72c.418 0 .763-.028.763-.072 0-.038.197-.133.436-.122.24.012 1.059.169 1.284.4l.007.017c.13.256.197 2.336.197 2.336.012.425-.007.773-.05.773-.035 0-.147.1-.147.218 0 .129-.025.24-.055.252-.024.012-.105.056-.112.08-.005.025-.077.113-.116.113-.037 0-.146.105-.146.225 0 .123-.026.226-.07.226-.042 0-.145.114-.145.269 0 .15.03.39.073.39.036 0 .128.122.11.275-.016.147.068.616.104.616.037 0 .13.123.113.27-.023.152.067.614.101.614.046 0 .1.078.05.174-.054.092-.11.581-.091.952.007.372-.06 1.321-.099 1.321-.037 0-.184.343-.228.763l.082.682c0 .426.097.824.218.884.119.062.21.212.21.332 0 .128.137.307.302.411.168.11.358.284.358.33 0 .04.089.222.202.314.118.085.443.308.443.35 0 .04.105.145.221.145s.212.033.212.082c0 .034.102.146.223.146.124 0 .217.034.217.07 0 .042.336.15.756.15l.884.08c.407-.043.75-.114.75-.155 0-.039.11-.061.252.04.137.104.837.001.837-.04 0-.039.09-.145.21-.145.115 0 .218-.034.218-.072 0-.04.095-.156.216-.156.124 0 .213-.03.213-.074 0-.034.045-.193.093-.24.05-.053.376-.57.414-.57.043 0 .146-.1.146-.224 0-.119.04-.216.072-.216.04 0 .144-.246.144-.55 0-.302.038-1.006.074-1.006.037 0 .148-.042.14-.091 0-.052-.018-.108-.035-.09-.02.013-.179-.395-.179-.815V368.7c0-.428-.026-.768-.068-.768-.036 0-.165-.253-.197-.556-.03-.304.088-1.001.121-1.001.04 0 .144-.101.144-.223 0-.12-.026-.222-.068-.222-.036 0-.148-.098-.148-.22 0-.123-.029-.22-.069-.22-.035 0-.159-.351-.164-.775l-.005-2.452c.01-.424.12-.821.239-.884.118-.06.226-.204.233-.308.02-.113.301-.519.419-.577.117-.062.221-.218.221-.338 0-.122.03-.217.067-.217.039 0 .141-.101.141-.228 0-.12.037-.217.075-.217.037 0 .165-.344.19-.775l.191-.893c-.008-.426-.05-.78-.085-.78-.044 0-.15-.035-.15-.068 0-.04.034-.155.075-.155.038 0 .135-.187.116-.428-.01-.24-.065-.503-.19-.563-.123-.058-.226-.293-.244-.518-.008-.226-.223-.707-.26-.707-.043 0-.344-.195-.583-.441-.233-.244-.53-.444-.652-.444-.116 0-.455-.056-.756-.116-.295-.059-1.1-.16-1.248-.22-.152-.06-.828-.086-1.119-.056-.281.026-1.001.197-1.001.236 0 .042-.093.156-.21.156-.122 0-.413.08-.66.184-.235.098-.63.294-.863.333-.242.035-.547.15-.69.15-.14 0-.73 0-1.15.002l-1.75.186c-.413.018-.75.066-.75.108 0 .038-.16.174-.356.21-.192.036-.732.19-.732.232 0 .038-.142.114-.32.079-.184-.045-.662-.215-1.075-.293 0 0-.327-.076-.639-.155-.313-.084-.902-.15-1.328-.15l-1.522-.051c-.42.03-1.098.045-1.508.038 0 0-2.556-.06-3.375.239l-.128.05c-.055.029-.088.047-.088.023 0-.021-.245-.11-.547-.145-.293-.04-.83-.144-1.185-.119-.35.018-1.641-.114-2.043-.213l-.048-.088c-.404-.097-.92-.141-1.142-.103-.235.042-.682.179-.682.223 0 .035-.16.084-.364.003-.19-.08-.934-.047-.934-.003 0 .035-.123.167-.283.187-.152.017-.681-.092-.805-.152-.123-.059-.552-.064-.964-.011l-4.143.101c-.412.015-.885-.01-1.045-.054-.158-.04-.571-.176-.571-.215 0-.044-.104-.19-.23-.225-.109-.042-.238-.164-.269-.184-.037-.015-.362-.32-.342-.476.016-.151.274-.524.652-.711l.618-.396c.358-.21.8-.577.978-.825.178-.24.356-.643.394-.891.043-.244.176-.547.22-.66.038-.127.13-.576.11-.999l.118-2.458c-.049-.424-.049-1.003-.007-1.287.044-.29.203-1.136.283-1.275.079-.133.601-.474.725-.536.118-.061.315-.161.436-.221.119-.064.448-.14.73-.175.285-.037 1.12-.321 1.262-.526l.394.152.64.222c.25-.244.785-.425 1.205-.392 0 0 .128-.049.503.028.374.075.836.174 1.013.212.179.039.492.13.69.106.21-.016 1.063.06 1.482.086l1.092.134c.413.022.756.078.756.116 0 .037.167.134.364.12.21-.018 1.059.094 1.461.178l1.107.031c.419.028.752.012.752-.028 0-.043.2-.12.447-.079.233.043.769.174 1.178.204 0 0 .236.019.58.066.338.06.959.134 1.376.172 0 0-.029.02.259.062.276.048.59.086.701.086.11 0 .622.053.818.114.202.064.82.159.945.223a.607.607 0 0 1 .259.377c.024.144.22.71.282.819.056.108.172.808.252 1.227l.024.917c.031.424.015.768-.024.768-.036 0-.11.15-.072.333.036.183.146.462.146.622 0 .156.088.638.204.682.109.054.226.24.226.359 0 .123.106.327.223.45.116.118.36.253.54.29.177.04.57.123.865.079.298-.04.788-.136 1.09-.116.294.018.638-.038.754-.038.124 0 .383-.228.584-.522.199-.29.935-.844.935-.88 0-.039.055-.254.11-.374.063-.121.253-.32.433-.44.182-.126.35-.441.36-.701.026-.263.314-1.057.474-1.296.16-.25.4-.743.438-1.113.036-.368.185-.758.22-.878.042-.116.414-.422.745-.392.337.036 1.22-.077 1.352-.094.115-.023.368.032.559.032.19 0 .738-.027.738-.071 0-.048.292-.183.648-.223.359-.042.778-.154.93-.16.148 0 .646-.314.702-.43a.608.608 0 0 1 .324-.3c.126-.04.316-.192.432-.24.11-.055.319-.278.443-.46.115-.186.197-.575.184-.875-.013-.29.061-1.013.099-1.013.04 0 .138-.174.122-.38-.013-.207.054-.731.096-.731.04 0 .168-.217.198-.49.032-.267-.244-.994-.484-1.173M752.484 356.423c-.019-.267-.075-.479-.11-.479-.042 0-.175-.081-.209-.181-.033-.1-.297-.366-.474-.49-.183-.118-.332-.32-.332-.438a.41.41 0 0 0-.215-.338.395.395 0 0 1-.197-.349c.013-.136-.055-.425-.094-.425-.036 0-.148-.106-.148-.227 0-.116-.02-.216-.065-.216-.043 0-.245-.15-.37-.333a.723.723 0 0 0-.613-.307c-.21.012-.684-.059-.684-.097 0-.042-.092-.154-.196-.154-.11 0-.454-.03-.454-.069 0-.047-.124-.133-.27-.113-.156.021-.605-.074-.605-.112 0-.038-.227-.15-.507-.15-.292 0-1.01.035-1.01.074 0 .042-.123.14-.264.125-.148-.02-.602.059-.602.097 0 .04-.332.206-.749.274l-1.103.084c-.412.005-.754-.018-.754-.056 0-.042-.338-.154-.758-.154h-1.086c-.418 0-.756-.03-.756-.069 0-.047-.344-.117-.75-.083l-1.1-.1c-.417.016-.757-.004-.757-.042 0-.038-.097-.134-.228-.111-.123.024-.47-.139-.533-.261a.37.37 0 0 0-.332-.196c-.13.012-.426-.056-.426-.095 0-.043-.122-.143-.276-.13-.146.014-.592-.049-.592-.093 0-.038-.14-.13-.302-.105-.175.033-.567-.08-.567-.115 0-.041-.1-.148-.217-.148a.392.392 0 0 1-.314-.196c-.054-.106-.152-.254-.19-.254-.043 0-.135-.344-.11-.772l-.042-.895c0-.425-.032-.775-.067-.775-.04 0-.141-.236-.13-.513.006-.293-.051-1.039-.087-1.039-.035 0-.167-.221-.191-.484-.032-.256.075-.852.11-.852.046 0 .157-.1.157-.218 0-.128-.04-.223-.076-.223-.035 0-.147-.15-.147-.333 0-.183.03-.338.067-.338.045 0 .156-.288.156-.641 0-.353.024-1.348.066-1.348.035 0 .142-.352.142-.779l.029-.901c-.012-.424.007-.765.045-.765.035 0 .12-.21.084-.467-.034-.26.1-.872.13-.872.044 0 .165-.044.185-.097.017-.059.215-.562.252-.562.043 0 .148-.35.148-.772l.085-1.128c-.05-.417-.116-.762-.154-.762-.036 0-.13-.187-.092-.408.024-.223-.21-.806-.38-.922-.18-.132-.332-.329-.332-.452 0-.125-.032-.218-.067-.218-.04 0-.141-.038-.141-.076 0-.039-.144-.192-.315-.251-.175-.05-.393-.216-.45-.343-.06-.118-.349-.186-.64-.144-.286.04-.987.176-.987.22 0 .036-.112.123-.246.1-.13-.029-.505.2-.622.379-.124.181-.32.333-.431.333-.127 0-.227.038-.227.074 0 .041-.092.152-.214.152-.12 0-.216.029-.216.068 0 .044-.122.128-.27.11-.15-.033-.381.146-.381.267 0 .12-.03.22-.075.22-.036 0-.142.097-.142.217 0 .128-.028.226-.066.226-.042 0-.16.204-.166.46l-.203.428-.16.301c-.03.08-.087.15-.13.15-.035 0-.146.094-.146.213 0 .126.036.224.073.224s.136.166.116.374c-.017.208.064.736.106.736.037 0 .14.351.14.768l.05 1.128c-.03.418-.08.767-.116.767-.043 0-.16.35-.18.775v4.669c.02.425.064.77.105.77.038 0 .178.35.222.774l-.08 2.675c0 .428-.067.797-.16.828-.087.028-.307.257-.346.376-.042.11-.169.233-.213.233-.037 0-.147.037-.147.075 0 .04-.345.15-.756.15h-8.907c-.418 0-.774-.025-.791-.06-.015-.037-.21-.38-.254-.38-.042 0-.148-.105-.148-.23 0-.122-.029-.22-.068-.22-.037 0-.102-.103-.037-.224.056-.12.106-.57.106-.992l.06-3.122c-.036-.42-.098-.83-.14-.928-.038-.077-.082-.629-.018-.904.053-.272.068-.492.03-.492-.038 0-.153-.344-.153-.768v-.901c0-.425.03-.768.072-.768.043 0 .136-.333.12-.741-.02-.399.058-1.482.102-1.482.037 0 .141-.332.141-.726 0-.404.037-1.492.073-1.492.04 0 .15-.106.15-.224 0-.126-.036-.444-.075-.444-.035 0-.133-.235-.117-.528.014-.288-.055-1.026-.098-1.026-.042 0-.124-.138-.098-.316.032-.173-.198-.672-.375-.788-.18-.132-.325-.329-.325-.452a.375.375 0 0 0-.184-.316c-.106-.056-.247-.229-.247-.348a.282.282 0 0 0-.21-.264c-.117-.02-.54-.325-.657-.516-.124-.178-.313-.333-.436-.333-.117 0-.222-.025-.222-.07 0-.04-.104-.13-.232-.109-.135.026-.554-.004-.714.051-.165.05-.497.325-.676.564-.178.244-.468.46-.626.465-.168.005-.839.315-.898.434-.056.122-.22.236-.376.257-.148.01-.388.29-.388.41s-.029.227-.069.227c-.041 0-.163.147-.183.32-.025.188-.213.784-.25.784-.036 0-.135.238-.116.527.012.284.122 1.124.298 1.247.174.122.298.576.259.993l.141 3.123c-.042.424-.048.773-.005.773.038 0 .162.137.179.31.019.175.221.795.264.795.037 0 .141.091.141.207 0 .11-.029.459-.072.459-.032 0-.142.037-.142.074 0 .038.03.148.073.148.037 0 .17.344.21.771l-.042 1.13c-.02.422-.056.766-.099.766-.032 0-.142.101-.142.217 0 .126-.106.276-.222.336a.348.348 0 0 0-.178.351c.024.137-.074.425-.114.425-.041 0-.126.35-.114.775l.044 1.799c.078.417.117.8.078.85-.036.054-.33.614-.557.652-.23.043-.677.182-.677.222 0 .037-.272.117-.604.082-.33-.038-1.13.096-1.13.138 0 .037-.097.145-.221.145s-.221.036-.221.075c0 .043-.096.14-.222.125-.124-.02-.429.059-.429.097 0 .04-.11.146-.244.142-.144-.001-.623.257-.623.298 0 .042-.19.354-.424.596-.24.24-.904.89-.948.89-.036 0-.146.034-.146.073 0 .035-.179.343-.399.573-.215.235-.505.46-.543.46-.034 0-.165.291-.196.626-.03.348.228 1.068.45 1.241.214.172.473.39.473.428 0 .04.11.15.257.15.143-.005.659.322.719.45.056.121.252.232.423.244.174.02.604.292.665.419.061.121.443.237.86.256h1.963c.417-.019.756-.07.756-.11 0-.034.092-.156.196-.16.109-.012.67-.244.67-.285 0-.041.171-.125.375-.1.203.027.712-.079.712-.116 0-.041.099-.148.215-.148.117 0 .228-.04.228-.075 0-.04.11-.132.26-.112.146.03.601-.073.601-.12 0-.034.197-.137.436-.12.247.014.868-.06.868-.097 0-.036.233-.139.51-.128.274.02 1.007-.053 1.007-.092 0-.04.338-.177.748-.212l2.626-.116c.412-.028.75-.084.75-.117 0-.04.338-.155.751-.155l1.315-.03c.418.02.761.066.761.107 0 .04.13.087.296.011.167-.077 1.001-.052 1.001-.01 0 .038.122.153.258.153.149.007.608-.043.608-.076 0-.04.348-.175.75-.2l2.626.045c.412 0 .749.036.749.077 0 .04.29.167.627.195.338.021 1.764.21 1.764.25 0 .04.34.123.749.095l1.968.095c.419-.024.75-.005.75.032 0 .04.125.161.277.173.148.014.597-.06.597-.097 0-.036.121-.152.261-.156.143-.007.39.043.39.08 0 .04.098.15.218.15s.212.03.212.074c0 .041.343.145.762.145l.662.086c.412-.05.751-.05.751-.012 0 .042.34.142.756.125l1.967.056c.406-.017.748.007.748.045 0 .043.292.151.649.151.35 0 1.301.028 1.301.068 0 .037.211.185.462.217l.19-.069.332-.119c-.172-.073-.281-.126-.253-.12.032.005.143.051.143.091 0 .037.122.148.27.148.148 0 .382.037.382.072 0 .044.164.141.361.123.21-.013.725.063.725.105 0 .043.159.135.37.12.196-.016.712.063.712.1 0 .041.174.164.381.185.21.023.732-.092.763-.156.036-.062.376-.066.376-.029 0 .041.158.152.35.159.191 0 .736-.047.736-.083 0-.035.196-.143.436-.132.242.004.862-.052.862-.09 0-.035.141-.13.313-.091.172.024.657-.21.775-.394a2.74 2.74 0 0 1 .54-.556c.185-.12.332-.318.332-.44s.032-.217.069-.217c.043 0 .207-.588.184-.857M657.588 336.85c.19-.826.079-1.898.079-1.898-.043-.423-.11-.77-.154-.77-.037 0-.122-.242-.086-.549.03-.3-.092-1.002-.127-1.002-.043 0-.141-.103-.141-.222 0-.122-.038-.224-.082-.224-.036 0-.124-.118-.092-.246.018-.143-.196-.466-.374-.527-.178-.067-.31-.216-.288-.348.01-.135-.179-.528-.364-.653-.179-.118-.375-.423-.436-.666-.056-.244-.136-.445-.179-.445a.37.37 0 0 1-.221-.161c-.044-.086-.238-.28-.358-.28-.122 0-.22-.031-.22-.072 0-.044-.109-.138-.244-.111-.142.025-.506-.19-.622-.372-.118-.183-.35-.345-.51-.36-.168-.009-.672-.347-.794-.53-.116-.183-.314-.327-.428-.327-.118 0-.216-.038-.216-.079 0-.037-.098-.15-.223-.15-.117 0-.216-.029-.216-.075 0-.038-.101-.135-.225-.118-.124.02-.426-.061-.426-.101 0-.041-.342-.15-.756-.15l-1.308-.065c-.417.032-.757.027-.757-.009 0-.037-.239-.12-.527-.088-.296.028-1.206.124-1.206.088 0-.037-.036-.146-.074-.146-.042 0-.148.03-.148.078 0 .038-.085.119-.201.091-.11-.03-.497.148-.553.279-.063.114-.211.217-.334.217-.122 0-.213.033-.213.073 0 .042-.112.256-.245.39-.143.125-.623.458-.623.5 0 .034-.176.181-.387.216-.216.04-.484.252-.484.374 0 .123-.032.22-.07.22-.036 0-.188.106-.246.223-.054.115-.214.22-.332.22-.122 0-.27.204-.324.443-.062.242-.141.448-.181.448-.041 0-.153.032-.153.076 0 .041-.091.146-.214.146-.116 0-.228.147-.241.323-.009.176-.337.659-.51.772-.177.124-.337.364-.34.517 0 .151-.309.659-.427.72-.123.062-.222.314-.227.568-.012.246-.301.924-.425.988-.116.058-.234.243-.252.403-.018.157-.216.599-.251.599-.044 0-.148.342-.148.768l-.075 1.342c.044.428.107.771.143.771.044 0 .128.173.099.392-.032.208.086.719.122.719.043 0 .159.145.178.322.02.172.282.618.4.679.122.059.204.21.184.34-.026.128.068.433.105.433.043 0 .295.206.472.448.179.24.359.446.401.446.042 0 .142.106.134.24-.007.132.326.42.442.42.118 0 .216.034.216.074 0 .043.116.256.254.388.134.131.618.459.618.5 0 .043.099.154.216.154.116 0 .314.145.432.325.122.185.316.337.436.337.123 0 .264.1.324.222.062.122.246.232.418.244.173.008.774.233.774.274 0 .04.148.154.32.168.174.02.768.231.768.274 0 .034.1.146.222.146.117 0 .209.034.209.08 0 .04.204.13.453.103.255-.021.856.076.856.116 0 .04.24.232.531.336.293.097 1.417.003 1.417-.036 0-.037.124-.137.266-.13.154.013.601-.054.601-.098 0-.04.21-.12.473-.085.259.03.838-.096.838-.132 0-.038.098-.154.216-.154.114 0 .256-.097.318-.218.06-.116.208-.224.331-.224.117 0 .265-.1.327-.219a.385.385 0 0 1 .318-.223c.119 0 .288-.176.375-.397.08-.22.376-.493.497-.493.124 0 .223-.032.223-.07 0-.04.093-.146.21-.146.122 0 .22-.035.22-.075 0-.043.031-.153.069-.153.042 0 .146-.03.146-.072 0-.04.106-.151.22-.151.126 0 .242-.152.266-.34.036-.188.196-.55.24-.55.044 0 .142-.03.142-.07 0-.041.036-.143.067-.143.043 0 .152-.098.152-.222 0-.127.143-.326.321-.446.184-.126.356-.4.387-.617.03-.223.19-.941.227-.941.044 0 .124-.212.098-.472-.029-.27.08-.855.123-.855.039 0 .141-.103.141-.23 0-.12.04-.218.075-.218.036 0 .148-.136.148-.295 0-.174-.03-.37-.075-.37-.037 0-.056-.168.056-.364l.02-.079m-5.086-.32c-.072.417-.156.763-.196.763-.042 0-.148.097-.148.224 0 .124-.028.222-.071.222-.045 0-.141.1-.141.219 0 .12-.034.217-.07.217-.042 0-.172.16-.202.348-.027.19-.29.632-.442.744-.148.106-.376.279-.376.314 0 .041-.308.186-.67.232-.375.034-1.063.178-1.063.213 0 .047-.344.139-.756.119l-1.33-.05c-.4-.073-.742-.172-.742-.213 0-.043-.116-.135-.264-.115-.148.02-.603-.066-.603-.108 0-.037-.104-.126-.24-.102-.133.02-.508-.196-.625-.378-.117-.188-.245-.333-.283-.333-.042 0-.192-.343-.233-.768l-.141-3.121c0-.422.036-.776.077-.776.039 0 .148-.092.148-.218 0-.12.093-.269.216-.333.124-.064.216-.141.216-.187 0-.038.09-.185.203-.236.116-.046.233-.234.233-.353 0-.124.08-.235.183-.248.098-.012.512-.295.573-.421.06-.119.21-.223.33-.223.118 0 .21-.024.21-.07 0-.04.097-.146.221-.146.12 0 .215-.036.215-.079 0-.038.124-.126.272-.097.141.025.601-.083.601-.12 0-.039.184-.12.414-.092.226.04.884.197.884.232 0 .047.097.156.221.156.117 0 .263.097.325.216.055.124.37.235.7.247.322.008.93.23.93.277 0 .033.098.195.213.253.119.064.216.208.216.334 0 .122.135.316.301.434.166.115.35.268.35.307 0 .039.033.15.07.15.042 0 .146.12.146.263 0 .147.014.752.025 1.172l.103 1.131M529.777 357.475c-.024-.358-.074-.651-.117-.651-.036 0-.148-.09-.148-.21 0-.13-.077-.26-.183-.302-.11-.044-.266-.305-.29-.49-.024-.187-.27-.597-.387-.657-.115-.056-.208-.205-.19-.325.011-.11-.06-.45-.1-.45-.034 0-.146-.102-.146-.223a.398.398 0 0 0-.19-.32c-.1-.051-.24-.23-.24-.351 0-.116-.103-.27-.222-.328a.424.424 0 0 1-.216-.336c0-.124-.145-.317-.324-.443-.179-.118-.339-.356-.35-.522-.02-.164-.343-.694-.517-.811-.184-.119-.344-.479-.362-.804-.014-.315-.283-1.021-.402-1.083-.114-.06-.22-.209-.22-.329 0-.127-.03-.225-.068-.225-.037 0-.173-.071-.196-.154-.026-.08-.201-.512-.24-.512-.037 0-.146-.18-.16-.392-.01-.22-.228-.944-.269-.944-.044 0-.15-.114-.143-.261 0-.144-.412-.719-.652-.828l-.004-.02-.258-.496a.745.745 0 0 0-.291-.61c-.177-.122-.32-.493-.32-.815.007-.32-.252-1.186-.295-1.186-.034 0-.14-.097-.14-.225 0-.116-.1-.264-.217-.324-.121-.06-.225-.237-.232-.377-.017-.152-.232-.627-.276-.627-.037 0-.15-.223-.15-.507-.003-.269-.354-.92-.54-1.048-.175-.12-.318-.434-.325-.693-.007-.263-.244-1.079-.282-1.079-.044 0-.148-.101-.148-.224 0-.122-.031-.228-.074-.228-.037 0-.166-.062-.189-.141-.032-.09-.204-.521-.248-.521-.036 0-.135-.279-.135-.616l-.221-.492-.028-.055c-.223-.09-.407-.265-.407-.385 0-.128-.032-.226-.074-.226-.036 0-.142-.1-.142-.222 0-.118-.036-.226-.073-.226s-.168-.214-.179-.484c-.02-.264-.216-.842-.253-.842-.043 0-.17-.068-.195-.158-.026-.078-.204-.512-.242-.512-.035 0-.128-.105-.108-.234.024-.123-.136-.478-.254-.539a.364.364 0 0 1-.177-.345c.017-.127-.235-.584-.473-.766-.242-.181-.432-.445-.418-.582.011-.139-.43-.788-.664-.97-.241-.188-.442-.509-.442-.726 0-.211.034-.716.073-.716.043 0 .135-.126.124-.272-.02-.154.053-.622.09-.622.045 0 .155-.097.155-.22 0-.125.091-.274.207-.333.125-.061.223-.267.223-.455.005-.196.245-.764.289-.764.036 0 .147-.094.147-.222 0-.123.03-.223.074-.223.038 0 .116-.095.086-.213-.026-.107.088-.455.121-.455.045 0 .157-.1.157-.225 0-.123.023-.22.066-.22.044 0 .129-.262.112-.587-.027-.324.066-1.183.104-1.183.042 0 .121-.206.097-.464-.03-.253.08-.87.123-.87.038 0 .144-.104.144-.228 0-.118-.032-.219-.076-.219-.036 0-.123-.124-.096-.279.022-.153-.074-.605-.12-.605-.035 0-.154-.157-.16-.364-.01-.192-.3-.804-.416-.859-.118-.062-.216-.212-.216-.332 0-.125-.03-.222-.08-.222-.038 0-.288-.196-.466-.446-.185-.242-.474-.465-.66-.48-.188-.021-.75-.222-.75-.258 0-.039-.335-.175-.748-.203 0 0-.7-.05-.99.053l-.313.106c-.308-.06-.552-.07-.552-.032 0 .037-.093.144-.199.144-.104 0-.454.032-.454.078 0 .04-.1.147-.216.147-.123 0-.318.15-.435.336-.117.181-.42.344-.677.363-.251.013-.843.222-.843.264 0 .04-.028.15-.067.15-.041 0-.152.031-.152.075 0 .039-.093.144-.216.144-.117 0-.314.148-.43.335-.118.181-.356.356-.516.386-.16.028-.338.26-.327.382.01.117-.056.45-.099.45-.035 0-.13.176-.101.395.016.216-.076.719-.12.719-.043 0-.146.1-.146.225 0 .12-.033.223-.069.223-.037 0-.122.338-.099.765l-.14 1.348c.056.423.062.763.03.763-.043 0-.142.166-.136.365.014.201-.042.75-.084.75-.036 0-.124.18-.092.387.022.212-.087.723-.13.723-.036 0-.148.1-.148.215a.429.429 0 0 1-.214.34c-.116.061-.222.213-.222.345-.007.13-.245.659-.284.659-.042 0-.14.104-.129.234.013.134-.048.426-.09.426-.038 0-.147.1-.166.225-.015.12-.221.66-.264.66-.037 0-.13.128-.107.276.032.15-.072.617-.108.617-.044 0-.149.1-.149.22s-.036.22-.068.22c-.041 0-.161.32-.167.707-.004.392-.232 1.513-.268 1.513-.044 0-.148.127-.14.276 0 .156-.04.394-.082.394-.036 0-.152.201-.177.456-.02.249-.218.87-.252.87-.038 0-.154.108-.166.226-.015.122-.233.67-.27.67-.038 0-.142.294-.131.668.019.362-.048 1.32-.085 1.32-.043 0-.147.359-.147.774v2.006c0 .43-.032.78-.075.78-.037 0-.116.175-.092.388.023.212-.087.724-.124.724-.037 0-.146.1-.146.223 0 .117-.031.212-.075.212-.035 0-.14.104-.14.225 0 .123-.03.228-.07.228-.04 0-.147.032-.147.071 0 .039-.144.295-.324.479-.186.182-.356.338-.395.338-.041 0-.147.096-.147.216a.394.394 0 0 1-.19.32c-.1.05-.251.227-.251.348 0 .123-.025.223-.07.223-.035 0-.134.123-.12.273.004.163-.02.716-.02.836 0 .123-.03.223-.074.223-.035 0-.11.307-.068.685.044.38-.11 1.312-.147 1.312-.043 0-.143.102-.143.224 0 .123-.034.222-.073.222-.043 0-.146.101-.146.226 0 .128-.314.488-.436.548a.349.349 0 0 0-.192.322c.013.113-.06.46-.104.46-.036 0-.14.096-.14.216 0 .121-.034.224-.067.224-.044 0-.163.15-.18.338-.012.183-.22.772-.252.772-.041 0-.172.12-.19.256-.025.134-.216.852-.248.852-.042 0-.128.172-.098.386.026.21-.079.728-.123.728-.041 0-.13.084-.116.194.019.112-.061.472-.099.472-.036 0-.152.091-.165.2-.008.114-.227.684-.27.684-.038 0-.13.242-.106.534.02.282-.068 1.017-.11 1.017-.037 0-.127.127-.114.272.016.156-.065.621-.1.621-.044 0-.159.171-.167.376-.018.203-.289 1.004-.4 1.06-.11.054-.269.434-.318.824-.044.386.184 1.343.301 1.403a.42.42 0 0 1 .216.333c0 .123.035.222.07.222.045 0 .149.037.149.073 0 .045.166.336.37.563.203.218.934.73.934.768 0 .042.337.145.756.145l.91.024c.398-.133.724-.341.724-.464s.094-.22.216-.22c.124 0 .21-.035.21-.072 0-.043.122-.148.272-.148.138.003.748-.427.925-.67.177-.243.357-.443.393-.443.046 0 .148-.099.148-.22 0-.123.031-.223.068-.223.042 0 .134-.117.112-.259-.028-.146.188-.512.368-.632.171-.122.332-.326.336-.468.008-.129.236-.638.278-.638.044 0 .165-.099.185-.216.017-.119.208-.667.245-.667.038 0 .128-.17.106-.368-.019-.192.073-.753.108-.753.038 0 .15-.115.15-.258 0-.141.036-.405.072-.405.044 0 .168-.31.196-.693.031-.382.196-1.747.234-1.747.038 0 .124-.216.092-.472-.03-.264.154-.908.278-.97.116-.062.215-.254.215-.422 0-.181.03-.579.067-.579.044 0 .13-.205.104-.464-.024-.252.075-.87.112-.87.043 0 .146-.115.146-.256 0-.143.031-.408.075-.408.037 0 .116-.184.085-.4-.029-.228.162-.763.278-.819a.54.54 0 0 0 .256-.328c.027-.119.21-.675.246-.675.046 0 .148-.098.148-.218 0-.122.1-.271.216-.339a.4.4 0 0 0 .216-.327c0-.124.035-.228.075-.228.035 0 .157-.018.163-.056.028-.03.07-.106.095-.112.025-.009.11-.149.11-.272 0-.12.03-.225.074-.225.036 0 .15-.21.177-.47.013-.267.276-.906.393-.97.124-.061.232-.428.247-.812.012-.392.221-1.515.256-1.515.04 0 .15-.112.15-.236 0-.126.031-.434.072-.434.031 0 .123-.124.092-.275-.024-.153.087-.612.122-.612.045 0 .162-.084.18-.184.019-.108.214-.707.253-.707.041 0 .147-.097.147-.22 0-.125.036-.222.075-.222.042 0 .145-.1.145-.22 0-.123.099-.272.223-.332a1.25 1.25 0 0 0 .368-.363c.086-.136.5-.443.5-.488 0-.037.12-.175.28-.203.16-.03.629.15.689.276.06.124.201.223.325.223.119 0 .216.036.216.07 0 .042.159.198.35.269l.086.097.067.09c-.036.322-.036.58.007.58.039 0 .248.146.363.334.124.181.253.335.288.335.038 0 .14.096.14.218 0 .12.033.223.076.223.042 0 .165.101.19.224.019.119.204.664.246.664.036 0 .153.123.168.268.01.14.22.625.269.625.037 0 .141.1.141.223 0 .117.031.212.074.212.038 0 .14.104.14.225 0 .123.1.275.217.335.123.06.244.248.276.417.03.167.19.364.235.364.036 0 .145.21.153.48.012.258.24.85.276.85.037 0 .152.013.16.032.007.016.239.41.283.41.037 0 .19.202.252.444.06.243.134.44.177.44.044 0 .16.215.179.468.017.256.214.87.257.87.039 0 .167.1.185.213.019.124.21.675.247.675.036 0 .147.1.147.22 0 .122.03.225.073.225.037 0 .141.03.141.073 0 .039.092.355.21.61l.228.2.06.056c.205.094.369.285.362.429-.007.139.32.68.444.743a.402.402 0 0 1 .215.33c0 .123.099.27.216.335.123.06.225.248.232.417.005.17.241.798.277.798.043 0 .148.106.148.224 0 .124.03.225.067.225.044 0 .148.1.148.216 0 .121.085.27.185.323.11.054.244.226.244.348 0 .12.038.222.075.222.043 0 .124.214.092.47-.03.257.088.862.121.862.046 0 .15.102.15.223 0 .116.098.267.221.328a.427.427 0 0 1 .213.341c0 .12.032.21.075.21.039 0 .13.13.112.28-.02.156.063.614.099.614.042 0 .122.186.097.419-.036.224.147.741.27.81.12.058.203.391.19.74-.004.355.27 1.362.31 1.362.042 0 .153.1.153.223 0 .12.093.273.216.334.121.062.22.207.22.33 0 .12.134.309.301.42.165.109.363.273.388.31.017.036.08.114.092.119.024.007.084.137.084.26s.1.236.223.248c.128.016.644.232.644.272 0 .036.092.148.216.148.117 0 .214.035.214.07 0 .043.346.125.758.1l.458-.023c.407-.083.746-.182.746-.223 0-.039.093-.147.216-.147.116 0 .264-.099.326-.217a.628.628 0 0 1 .312-.304c.104-.041.21-.29.198-.46-.02-.176.061-.35.098-.35.043 0 .135-.105.108-.235-.016-.13.068-.432.112-.432.038 0 .124-.126.092-.282-.024-.154.148-.656.264-.714.126-.062.223-.34.223-.607 0-.28.03-.837.073-.837.035 0-.007-1.218-.03-1.576" style="fill:#fff;fill-opacity:1;fill-rule:nonzero;stroke:none;stroke-width:.133333" transform="translate(-263.368 -294.945)"/><path d="M704.836 320.643c.036 0 .043.096.013.218-.033.115.154.452.276.452.123 0 .215.032.215.07 0 .041.02.229.03.328.014.097.627.518.627.562 0 .035.1.144.215.144.117 0 .315.15.43.336.123.182.32.33.435.33.12 0 .218.033.218.074 0 .042.338.171.756.188l.878.035c.419-.041.756-.108.756-.144 0-.043.086-.144.198-.133.102.013.46-.054.46-.091 0-.039.161-.139.369-.124.208.012.707-.053.707-.097 0-.044.117-.142.269-.128.143.008.597-.056.597-.096 0-.042.278-.13.608-.103.332.023 1.132-.083 1.132-.119 0-.04.087-.14.198-.125.109.009.452-.053.452-.097 0-.035.197-.128.442-.107.235.025.863-.07.863-.11 0-.04.104-.147.227-.143.129.014.764-.039 1.173-.075l2.625-.31c.412-.04.93-.09 1.143-.12.216-.03.733-.25.775-.343.044-.096.03-.195-.031-.219-.06-.027.481.06.88.153l.288.098c.407.106.733.218.733.248 0 .033.343.129.756.144l4.35-.004c.41-.011.756-.059.756-.096 0-.04.093-.151.216-.151.124 0 .264-.016.306-.035.05-.021.13-.05.13-.034 0 .02.246.093.548.122.3.031.854.316.97.502.118.18.326.312.46.288.13-.031.407.076.407.117 0 .041.264.13.583.105.32-.03 1.15.076 1.15.12 0 .035.124.144.272.144.139 0 .602.035.602.072 0 .042.337.15.749.15l4.795.05c.404-.026.773.115.797.323.032.205.196.957.239.957.04 0 .15.104.15.227 0 .123.072.263.178.316.092.048.252.225.252.35 0 .12.036.22.072.22.038 0 .142.158.142.358 0 .19-.03.753-.068.753-.036 0-.146.147-.146.315 0 .177.054.448.12.563.07.11.064.456.026.456-.036 0-.133.273-.124.614.014.339-.053 1.159-.092 1.159-.042 0-.164.301-.19.672-.022.37.074 1.324.12 1.324.036 0 .14.11.14.239 0 .128.036.428.072.428.038 0 .13.24.118.525-.013.288.063 1.037.098 1.037.038 0 .166.342.197.764l-.05.903c0 .42-.03.767-.073.767-.042 0-.172.329-.197.733-.03.405-.245 1.087-.355 1.13-.105.042-.277.229-.322.346-.042.11-.17.239-.214.239-.037 0-.024.057.118.122.146.07-.163.374-.308.443-.148.064.007.617.213.717l.057.044.202.202c.008.253.192.609.4.776.209.172.48.393.48.426 0 .043.277.342.6.583.345.23.265.281.265.34 0 .064.119.123.267.135.14.01.65.304.713.43a.438.438 0 0 0 .35.218c.122.005.626.257.626.294 0 .038.227.115.505.07.276-.051.799-.172.799-.216 0-.04.092-.13.196-.1.11.026.504-.151.56-.266.061-.126.208-.228.33-.228.118 0 .217-.032.217-.069 0-.041.03-.156.066-.156.046 0 .21-.176.278-.395.073-.23.056-1.152.02-1.152-.04 0-.14-.124-.126-.285.007-.15-.056-.607-.092-.607-.041 0-.166-.021-.176-.038-.026-.028.22-.527.196-.952l.048-1.116c0-.428.031-.776.075-.776.035 0 .128-.18.11-.398-.02-.214.066-.708.103-.708.038 0 .148-.108.148-.238 0-.128.031-.43.07-.43.042 0 .158-.354.17-.77l.024-1.13c-.024-.42-.078-.768-.124-.768-.034 0-.14-.35-.133-.772l.165-4.23c.024-.42.014-.766-.032-.766-.034 0-.114-.122-.084-.266.036-.14.13-.632.084-.632-.034 0-.14-.095-.14-.215 0-.123.031-.223.07-.223.042 0 .116-.304.078-.677-.036-.373.104-1.325.142-1.325.037 0 .133-.104.117-.224-.012-.126.056-.44.097-.44.044 0 .15-.1.15-.222 0-.117.03-.222.066-.222.036 0 .128-.112.103-.254-.024-.142.105-.432.18-.456.079-.025.443-.426.627-.733.178-.301.357-.548.4-.548.037 0 .148-.16.152-.35.007-.182-.042-.767-.08-.767-.043 0-.128-.135-.11-.295.026-.165-.073-.592-.112-.592-.036 0-.148-.096-.148-.219a.409.409 0 0 0-.212-.334c-.124-.067-.222-.211-.222-.335a.383.383 0 0 0-.184-.316c-.104-.053-.252-.16-.252-.196 0-.04-.191-.161-.426-.161l-.22-.214-.178-.17c-.018-.275-.135-.5-.26-.5-.114 0-.214-.032-.214-.068 0-.04-.098-.15-.214-.15-.124 0-.216-.032-.216-.073 0-.04-.123-.136-.27-.116-.148.016-.605-.068-.605-.105 0-.042-.095-.154-.22-.158-.124-.003-.484.054-.533.112l-.326.12c-.596.2-.984.208-.984.208-.42.005-.757.048-.757.086 0 .037-.27.144-.587.149-.33.003-1.366.253-1.366.296 0 .037-.1.15-.215.15-.116 0-.215.026-.215.066 0 .05-.118.153-.258.153-.136 0-.392-.032-.392-.073 0-.036-.132-.147-.28-.147-.146 0-.59.027-.59.067 0 .05-.128.153-.277.161-.157 0-.595-.04-.595-.081 0-.036-.232-.135-.51-.113-.284.02-1.002-.071-1.002-.11 0-.037-.122-.149-.27-.156-.147-.003-.603.04-.603.083 0 .037-.092.15-.216.15-.123 0-.219.026-.219.066 0 .05-.098.103-.216.044a1.561 1.561 0 0 0-.516-.133c-.165-.015-.572.05-.572.09 0 .05-.093.152-.214.152-.124 0-.222.04-.222.072 0 .038-.234.147-.514.147-.291 0-.998.035-.998.079 0 .041-.124.148-.264.148-.15 0-.61-.035-.61-.07 0-.04-.336-.109-.748-.053 0 0-.51.072-.986-.104l-.102-.033c-.062-.03-.111-.044-.111-.024 0 .014-.321.057-.715.057-.386 0-1.462.035-1.462.079 0 .041-.3.118-.663.084-.355-.04-1.29.094-1.29.136 0 .04-.205.114-.455.072l-.191.078-.093.031c-.072.03-.13.039-.13.025 0-.017-.233-.056-.516-.056-.282 0-1.001-.034-1.001-.076 0-.034-.141-.125-.308-.093-.172.032-.559-.088-.559-.124 0-.04-.068-.174-.146-.205-.086-.025-.512-.201-.512-.243 0-.036-.232-.146-.522-.146-.284 0-.997-.038-.997-.076s-.092-.15-.208-.15c-.121 0-.221.033-.221.076 0 .037-.308.12-.67.087-.376-.027-1.402.112-1.536.173-.136.059-.4.078-.4.036 0-.036-.338-.146-.756-.146h-.878c-.412 0-.758-.038-.758-.076s-.264-.134-.594-.12c-.332.012-1.138-.06-1.138-.106 0-.041-.345-.178-.75-.21l-2.62.06c-.416 0-.755.033-.755.08 0 .04-.096.133-.221.12-.122-.015-.43.06-.43.102 0 .038-.1.15-.222.15a3.66 3.66 0 0 1-.675-.118c-.25-.066-1.057.144-1.057.184 0 .05-.148.25-.32.372-.184.13-.326.324-.326.45 0 .12-.081.244-.173.278-.084.035-.264.198-.264.236 0 .039-.135.294-.308.467-.163.173-.779.604-.779.644 0 .043-.03.147-.073.147-.045 0-.148.033-.148.073 0 .039-.032.148-.068.148-.041 0-.148.248-.148.553 0 .301.107 1.003.148 1.003m25.47.233s-.011.008-.018 0c-.01-.007-.032-.012-.017-.012.007.001.036.008.036.012M482.997 320.427c.035 0 .018-.146-.037-.326-.056-.164-.148-.35-.185-.35-.036 0-.123-.092-.098-.203.023-.108-.074-.461-.112-.461-.042 0-.134-.126-.12-.274.018-.153-.064-.613-.101-.613-.037 0-.136-.088-.128-.201.012-.118-.05-.46-.087-.46-.042 0-.154-.103-.154-.227 0-.121-.202-.257-.472-.308l-.171-.133-.21-.159c-.007-.279-.04-.507-.087-.507a.39.39 0 0 1-.22-.161c-.038-.09-.234-.29-.351-.29-.124 0-.223-.031-.223-.067 0-.039-.09-.223-.202-.316-.115-.086-.45-.314-.45-.351 0-.04-.108-.163-.256-.173-.141-.01-.608-.232-.608-.267 0-.04-.124-.153-.27-.153-.148 0-.603.033-.603.074 0 .043-.333.162-.737.174-.407.009-1.427-.06-1.427-.095 0-.04-.345-.179-.756-.217l-1.1.064c-.413 0-.75.033-.75.074 0 .043-.105.148-.22.152-.118.003-.431-.038-.431-.073 0-.04-.172-.17-.368-.197-.203-.022-.727.097-.734.161 0 .065-.422.07-.422.036 0-.04-.34-.161-.75-.176l-4.056.015c-.42 0-.849.052-.954.121l-.314.11c-.818.28-2.072.103-2.072.103-.412-.057-.75-.07-.75-.029 0 .039-.159.165-.356.183-.19.03-.947.218-.947.258 0 .044-.337.176-.756.206l-.877-.007c-.42-.03-.751-.084-.751-.121 0-.042-.093-.14-.201-.131-.112.013-.458-.055-.458-.092 0-.04-.336-.153-.754-.153l-1.962-.056c-.412.036-.756.026-.756-.015 0-.04-.338-.147-.756-.147l-1.309-.03c-.416.015-.75.045-.75.063 0 .02-.049.042-.11.001l-.11-.034c-.573-.204-1.026-.038-1.026-.038-.39.142-.713.226-.713.184 0-.04-.167-.16-.37-.184-.197-.018-.72.071-.72.112 0 .04-.112.143-.245.143-.135 0-.401-.03-.401-.07 0-.04-.336-.17-.748-.203l-1.316.056c-.418 0-.763.033-.763.074 0 .04-.1.143-.219.143-.125 0-.426.033-.426.077 0 .036-.264.112-.59.075-.332-.05-1.148.107-1.148.147 0 .044-.1.152-.217.152-.116 0-.215.03-.215.07 0 .04-.172.15-.381.15-.201 0-.707.036-.707.073s-.165.117-.381.083c-.213-.034-.748.164-.81.286a.57.57 0 0 1-.34.275c-.126.017-.643.21-.643.243 0 .037-.168.17-.364.194-.196.026-.498.21-.498.251 0 .04-.054.27-.121.417-.063.15-.35.84-.381.84-.043 0-.13.115-.108.26.026.134-.188.503-.374.627-.177.124-.3.43-.274.676.024.255.041.952.15 1.035.114.09.464.321.464.368 0 .036.331.141.75.133l1.088.265c.417-.017.761 0 .761.042 0 .037.081.13.19.113.106-.02.455.065.455.107 0 .04.1.152.23.152.108 0 .206.03.206.07 0 .042.174.138.382.13.216-.019.706.052.706.096 0 .034.118.126.26.108.147-.02.607.07.607.108 0 .041.087.15.19.15.11 0 .46.031.46.08 0 .034.28.143.617.143.337 0 1.12.03 1.12.076 0 .035.096.09.212.035.124-.06.481-.085.801-.061.312.022 1.155-.078 1.155-.122s.122-.141.277-.128c.143.008.59-.056.59-.096 0-.041.24-.118.529-.088.276.034.989-.097.989-.133 0-.04.104-.15.22-.15.124 0 .221-.029.221-.073 0-.034.131-.081.29-.007.16.079.8.05.8.007 0-.034.092-.145.208-.145.125 0 .221-.03.221-.072 0-.04.161-.143.357-.123.196.01.726-.058.726-.105 0-.037.228-.141.514-.135.284.01 1.004-.044 1.004-.085 0-.037.343-.103.75-.056l1.321-.125c.41.02.756 0 .756-.038 0-.04.099-.15.215-.15.124 0 .214-.032.214-.076 0-.038.303-.147.659-.147.357 0 1.304.03 1.304.072 0 .039.293.15.657.139.368-.011 1.298.042 1.298.089 0 .036.208.124.465.099.265-.023.832.08.832.118 0 .042.085.132.19.111.103-.017.46.07.46.112 0 .037.085.147.191.147.104 0 .462.032.462.073 0 .04.114.152.264.152.146 0 .606-.03.606-.072 0-.04.1-.153.223-.153.12 0 .425.032.425.073 0 .04.084.152.19.152.105 0 .454-.03.454-.072 0-.04.234-.17.506-.192.276-.023.78.096.741.172-.035.075.493.061.493.02 0-.04.122-.161.272-.163.144-.008.379.042.379.083 0 .04.099.152.223.152.116 0 .213.03.213.07 0 .042.197.138.443.122.246-.015.86.06.86.104 0 .035.229.144.517.144.279 0 1.001.035 1.001.072 0 .041.032.07.076-.021.043-.1.583-.016.583.021 0 .041.092.15.21.15.115 0 .22.031.22.08 0 .034.025.143.069.143.036 0 .09.343.017.768l-.283 4.682c-.013.425.014.762.048.762.036 0 .135.206.119.452-.012.244.055.884.099.884.036 0 .17.351.201.771l.135 1.344c.02.419.062.773.098.773.038 0 .142.156.142.358 0 .189-.031.75-.067.75-.043 0-.143.035-.143.074 0 .044-.264.128-.576.105-.314-.03-1.162.079-1.162.116 0 .037-.123.16-.276.183-.155.014-.596-.063-.596-.106 0-.044-.118-.157-.254-.162-.14-.005-.393.048-.393.085 0 .037-.116.153-.257.153-.142 0-.399.035-.399.07 0 .042-.235.16-.536.165-.288.005-.983-.047-.983-.09 0-.04-.161-.138-.352-.13-.189.015-.729-.048-.729-.09 0-.045-.045-.1-.1-.027-.053.073-.559.069-.559.026 0-.044-.332-.132-.749-.11l-2.399-.04c-.417 0-.748-.034-.748-.074 0-.036-.318-.164-.714-.187-.386-.018-1.678-.212-1.678-.253 0-.041-.196-.15-.444-.15-.238 0-.86.035-.86.073 0 .038-.317.144-.714.144-.399 0-1.46-.026-1.46-.067 0-.041-.092-.15-.215-.15-.119 0-.437.035-.437.073 0 .038-.118.144-.27.144-.148 0-.59-.026-.59-.067 0-.041-.131-.103-.296-.047-.16.063-.462.114-.854.114-.393 0-1.457.037-1.457.078 0 .042-.339.167-.756.187 0 0-2.655.132-3.152-.04l-.1-.032c-.067-.032-.123-.041-.123-.03 0 .02-.226.077-.51.085-.282.012-1-.055-1-.092 0-.042-.25-.128-.542-.107-.296.027-.982-.075-.982-.116 0-.041-.118-.148-.254-.141-.141.008-.393-.044-.393-.083 0-.045-.097-.096-.216-.037-.124.061-.312.11-.424.11-.11 0-.45-.034-.45-.073 0-.045-.282-.103-.617-.052-.345.052-.59.125-1.004.125h-3.482c-.422 0-.755.036-.755.074s-.207.125-.453.093c-.252-.03-.854.088-.854.13 0 .04-.092.146-.214.146-.124 0-.223.035-.223.073 0 .044-.09.15-.207.15a.221.221 0 0 0-.222.225c0 .12-.032.223-.075.223-.036 0-.148.097-.152.222-.012.12-.235.659-.277.659-.038 0-.116.127-.094.28.032.15-.184.656-.349.705-.167.054-.11.796-.067.796.036 0 .146.099.146.219s.037.217.076.217c.036 0 .122.179.101.383-.03.21.076.73.112.73.037 0 .147.106.147.226 0 .12.032.219.069.219.037 0 .124.089.105.201-.026.107.48.499.48.537 0 .042.091.154.207.154.125 0 .223.03.223.069 0 .041.092.15.214.15.124 0 .222.038.222.078 0 .036.318.161.718.187.388.016 1.236-.074 1.236-.114 0-.04.094-.152.21-.152.128 0 .225-.033.225-.068 0-.041.168-.141.384-.134.201.014.693-.05.693-.091 0-.043.278-.148.608-.14.326.005 1.139-.036 1.139-.087 0-.038.33-.156.748-.178l4.132.007c.417.016.755.062.755.102 0 .031.204.142.437.148.239 0 .865-.028.865-.078 0-.04.327-.186.714-.234.386-.052 1.236.124 1.236.164 0 .03.202.296.442.48.239.188.43.43.43.558 0 .12.036.22.074.22s.147.098.147.225c0 .124.03.223.068.223.044 0 .147.096.147.212 0 .128.038.225.074.225.043 0 .14.101.14.228 0 .115.034.217.076.217.038 0 .147.102.147.22 0 .123.032.223.075.223.036 0 .122.093.092.201-.02.11.078.463.122.463.036 0 .122.357.1.777l.768 3.135c.078.417.146.788.146.827 0 .04.086.142.185.136.104-.008.687.272.687.306 0 .043.094.15.21.15.123 0 .222.034.222.076 0 .033.338.166.75.186l1.966.019c.418-.03.754-.087.754-.133 0-.042.118-.143.272-.142.142.007.38-.04.38-.077 0-.04.198-.147.444-.147.252 0 .852-.258.852-.3 0-.038.1-.188.211-.236.117-.049.228-.23.228-.353 0-.123.099-.273.22-.336.117-.061.205-.357.192-.667-.012-.308.055-1.001.09-1.001.046 0 .173-.344.21-.763l-.053-1.128c0-.422-.039-.765-.083-.765-.035 0-.14-.105-.14-.228 0-.123-.03-.223-.073-.223-.037 0-.135-.168-.119-.366.015-.212-.053-.736-.097-.736-.036 0-.164-.134-.19-.296-.02-.167.074-.598.118-.598.036 0 .208-.12.277-.266l.084-.175.106-.236c.06-.235.209-.433.325-.433.123 0 .22-.032.22-.074 0-.042.087-.138.197-.125.11.008.455-.056.455-.097 0-.038.284-.186.63-.235l.237.09.129.042c.048.039.088.053.088.032 0-.019.336-.09.756-.115l1.53.04c.411 0 .749.032.749.067 0 .041.338.187.75.225l2.188.128c.419.011.755.058.755.092 0 .047.34.128.756.098l1.747.084c.417-.018.749.007.749.046 0 .031.124.142.265.142.148 0 .608.037.608.076 0 .041.142.125.308.096.164-.03.607.152.67.276.06.125.209.222.326.222.118 0 .222.038.222.071 0 .043.298.164.676.179.369.016 1.485.228 1.485.27 0 .038.123.136.27.112.149-.017.598.071.598.112 0 .04.123.15.27.16.143.012.61-.046.61-.086 0-.04.11-.13.256-.107.148.017.601-.079.601-.113 0-.043.102-.152.218-.152.122 0 .222-.034.222-.075 0-.041.146-.119.326-.079.18.038.558-.165.576-.278.018-.124.282-.512.4-.572.117-.056.253-.451.296-.878l.078-.678c.03-.423.024-.776-.01-.776-.038 0-.158-.098-.158-.218s-.028-.218-.065-.218c-.036 0-.185-.187-.235-.419-.05-.23-.268-.57-.448-.695-.184-.121-.325-.254-.325-.297 0-.041-.185-.152-.405-.168-.223-.012-.726-.276-.77-.37-.048-.09-.165-.277-.202-.277-.038 0-.148-.1-.148-.22 0-.122.098-.27.222-.33.118-.063.216-.218.216-.335 0-.12.03-.223.067-.223.043 0 .145-.032.145-.069 0-.041.132-.225.286-.325.157-.09.368-.371.368-.487 0-.132.03-.227.068-.227.044 0 .166-.032.177-.06.013-.03.056-.106.081-.114a.482.482 0 0 0 .103-.27c0-.124.039-.224.075-.224.042 0 .146-.178.146-.392 0-.22.032-.717.076-.717.035 0 .159-.325.174-.735.017-.396-.34-1.536-.463-1.594a.416.416 0 0 1-.216-.334c0-.12-.037-.226-.073-.226-.044 0-.148-.098-.148-.22 0-.123-.03-.22-.068-.22-.043 0-.164-.348-.19-.77l-.024-.906c.03-.42.098-.774.134-.774.042 0 .148-.246.148-.562.005-.307.252-1.21.289-1.21.044 0 .159-.033.185-.08.018-.046.176-.462.176-.588 0-.122.032-.22.076-.22.035 0 .159-.088.176-.194.019-.112.216-.694.259-.694.039 0 .13-.276.117-.621-.012-.341.136-1.147.174-1.147m-31.656-5.56c-.007 0-.007-.003 0-.003.013-.004.037-.01.037-.007 0 0-.032.01-.037.01M552.197 329.3c-.176-.12-.317-.32-.317-.441 0-.122-.037-.227-.075-.227-.034 0-.244-.147-.362-.328-.122-.183-.559-.332-.976-.332l-1.094-.1c-.42.056-.75.13-.75.172 0 .04-.104.133-.228.116-.124-.023-.426.064-.426.105 0 .04-.116.147-.25.147-.14 0-.406.036-.406.073 0 .042-.117.147-.252.147-.141 0-.393-.03-.393-.07 0-.04-.104-.15-.228-.15-.124 0-.43.036-.43.073 0 .042-.231.05-.529-.073-.289-.123-.966-.6-.94-.79.03-.195-.073-.535-.117-.535-.036 0-.135-.206-.117-.464.008-.248-.055-.88-.098-.88-.038 0-.153-.155-.173-.355-.012-.208.063-.747.1-.747.035 0 .145-.122.145-.273 0-.153.034-.61.068-.61.039 0 .123-.127.099-.283-.032-.16.08-.612.117-.612.039 0 .15-.1.15-.223 0-.12.029-.223.072-.223.036 0 .141-.125.141-.269 0-.153-.03-.619-.072-.619-.04 0-.156-.34-.173-.764-.012-.414.061-1.452.104-1.452.036 0 .185-.352.228-.768l-.087-1.126c0-.42-.03-.775-.072-.775-.04 0-.181-.13-.23-.285-.042-.163-.325-.526-.566-.711-.236-.184-.436-.428-.436-.556 0-.123-.152-.252-.344-.287-.201-.029-.57-.253-.625-.378a.418.418 0 0 0-.332-.216c-.12 0-.215-.038-.215-.082 0-.034-.34-.112-.75-.065 0 0-.265.043-.547.147l-.266.085c-.222-.053-.393-.056-.393-.015 0 .036-.097.146-.215.146-.124 0-.221.033-.221.074 0 .043-.167.128-.361.099-.21-.027-.72.083-.72.124 0 .039-.135.152-.302.17-.165.013-.665.349-.782.534-.122.181-.318.327-.435.327-.116 0-.272.154-.332.337-.056.18-.135.333-.173.333-.036 0-.146.131-.146.287 0 .164-.03.381-.074.381-.038 0-.147.232-.147.52 0 .292.036 1.035.072 1.035.037 0 .125.123.1.273-.025.147.077.611.121.611.038 0 .142.124.142.275 0 .152.03.397.073.397.039 0 .148.195.148.439s-.036.789-.08 1.209l-.16 1.799c.007.42.05.768.092.768.039 0 .148.102.148.222 0 .123.1.27.216.334.117.058.22.317.22.57 0 .254-.035.868-.072.868-.039 0-.087.088-.008.196.076.106.045.478.008.478-.039 0-.161.104-.179.234-.012.134-.221.651-.258.651-.043 0-.124.092-.1.203.025.109-.078.457-.116.457-.036 0-.146.35-.146.773v5.564c0 .422.028.776.072.776.037 0 .142.083.142.192 0 .107.03.466.073.466.039 0 .148.286.148.632 0 .342.032 1.141.068 1.141.044 0 .148.356.148.776l.036 2.457c-.017.422.222.786.53.808l-.346.18c-.302.148-.282.343-.282.343.031.42.094.773.136.773.035 0 .146.096.146.216 0 .123.027.22.07.22.042 0 .128.208.116.455-.02.245.062.881.103.881.032 0 .087.339.013.762l-.005 3.353c-.049.424-.049.767-.008.767.032 0 .135.105.118.233-.01.13.057.441.092.441.044 0 .21.187.282.424.067.234.056 1.124.014 1.124-.043 0-.14.126-.13.274.012.146-.054.617-.093.617-.037 0-.159.316-.176.708-.02.392-.21 1.733-.255 1.733-.034 0-.14.167-.14.371 0 .213.026.732.068.732.043 0 .13.127.118.272-.014.156.061.621.102.621.032 0 .111.136.075.306-.036.169-.087.264-.007.673l.039 1.805c.024.42-.032.81-.114.856-.084.05-.034.578.007.578.032 0 .143.101.143.224 0 .122.032.222.067.222.044 0 .148.12.148.266-.007.144.321.674.436.73.118.066.19.227.16.371-.024.143.085.41.122.41.046 0 .247.147.363.333.124.186.332.312.467.278.134-.028.505.21.621.387.117.183.553.403.952.495l.684.028c.412.017.756-.003.756-.042 0-.04.099-.146.215-.146.116 0 .22-.028.233-.07.007-.036.037-.097.061-.102.026-.001.136-.15.136-.274 0-.12.118-.24.252-.257.134-.019.4-.31.386-.46-.012-.145.05-.393.088-.393.044 0 .141-.166.121-.37-.012-.208.063-.74.1-.74.035 0 .145-.122.145-.276 0-.148.034-.614.068-.614.04 0 .143-.099.143-.222 0-.12-.024-.442-.068-.442-.036 0-.143-.35-.143-.77v-5.121c0-.42.034-.772.068-.772.04 0 .166-.243.192-.543.02-.293-.073-1.01-.117-1.01-.036 0-.143-.116-.135-.262.004-.145-.037-.404-.08-.404-.038 0-.149-.116-.149-.256 0-.142.039-.41.076-.41.035 0 .145-.243.145-.53 0-.292-.029-1.026-.072-1.026-.038 0-.153-.347-.173-.77l-.159-1.34c-.018-.426 0-.776.038-.776.044 0 .145-.342.145-.77v-6.894c0-.42.039-.77.076-.77.035 0 .13-.11.11-.232-.02-.132.17-.536.351-.656.171-.12.38-.367.442-.548.061-.187.442-.363.86-.39l3.916-.176c.417 0 .757-.028.757-.069 0-.04.103-.15.22-.15.124 0 .24-.106.264-.237.025-.132.203-.43.239-.43.045 0 .154-.021.173-.057.01-.031.056-.108.08-.115a.44.44 0 0 0 .11-.272c0-.12.03-.22.075-.22.038 0 .147-.103.147-.217 0-.126.03-.223.067-.223.043 0 .15-.108.15-.225 0-.12.031-.223.067-.223.041 0 .122-.12.097-.276-.03-.152.08-.605.122-.605.037 0 .142-.107.142-.227 0-.121.03-.225.067-.225.039 0 .148-.343.143-.771l-.092-2.017c-.064-.42-.26-.86-.445-.986M612.293 361.49c-.042 0-.08-.098-.09-.213-.008-.122-.235-.669-.279-.669-.033 0-.128-.245-.11-.533.013-.288-.093-1.108-.154-1.22-.073-.11-.627-.251-1.005-.256-.396 0-1.311-.31-1.367-.431-.056-.128-.448-.23-.86-.23l-1.316-.069c-.412.039-.75.104-.75.142 0 .042-.238.134-.52.102-.285-.024-1.006.086-1.006.124 0 .043-.243.211-.544.29-.301.084-1.41.046-1.41.005 0-.042-.245-.167-.565-.192-.312-.028-1.384-.212-1.384-.247 0-.04-.342-.127-.753-.101l-3.479-.104c-.424.029-.764.02-.764-.027 0-.035-.11-.144-.264-.144-.141-.004-.601.03-.601.075 0 .041-.325.165-.713.184-.392.022-1.456-.068-1.456-.115 0-.035-.24-.125-.524-.1-.302.024-1.002-.081-1.002-.117 0-.036-.097-.142-.22-.132-.13.012-.426-.05-.426-.088 0-.04-.343-.144-.75-.144l-3.489-.056c-.413.028-.75.081-.75.121 0 .04-.1.152-.223.152-.115 0-.214-.035-.214-.073 0-.04-.344-.144-.756-.144l-1.53-.09c-.414.047-.751.115-.751.155 0 .04-.076.08-.16-.003-.087-.088-.713-.037-.713.003s-.086.152-.198.152c-.108 0-.448.033-.448.07 0 .04-.344.118-.756.083 0 0-.318.135-.708.03-.39-.099-.71-.218-.71-.256 0-.04-.204-.123-.448-.09-.254.034-.855-.094-.855-.136 0-.036-.081-.162-.187-.186-.102-.016-.681-.218-.681-.256 0-.036-.099-.143-.221-.143-.11 0-.312-.152-.431-.341-.12-.183-.312-.328-.428-.328-.125 0-.216-.038-.216-.072 0-.039-.105-.15-.227-.15-.118 0-.216-.034-.216-.073 0-.043-.098-.148-.216-.148-.121 0-.216-.197-.216-.43 0-.237-.036-.682-.07-.682-.038 0-.087-.27-.014-.583.084-.32.048-1.417.014-1.417-.038 0-.12-.212-.087-.476.03-.259-.156-.91-.277-.963a.434.434 0 0 1-.215-.34.42.42 0 0 0-.185-.322c-.112-.051-.252-.148-.252-.188 0-.043-.098-.15-.218-.15-.114 0-.212-.102-.212-.228 0-.118-.197-.366-.437-.553-.241-.183-.43-.432-.43-.555 0-.118-.037-.22-.074-.22s-.247-.144-.363-.333a1.552 1.552 0 0 0-.638-.49l-.45.16-.325.106c-.295-.061-.541-.077-.541-.032 0 .033 0 .141.007.135.007-.011-.543.233-.66.233-.115 0-.263.101-.324.221-.063.118-.198.291-.308.375-.1.085-.455.327-.455.361 0 .043-.03.15-.073.15-.036 0-.135.14-.124.321.013.177-.048.35-.092.35-.036 0-.122.085-.103.191.024.104-.075.468-.11.468-.042 0-.149.107-.149.231 0 .117-.03.215-.074.215-.035 0-.16.262-.172.57-.018.315.062.983.104.983.033 0 .142.159.142.356 0 .199.036.757.074.757.036 0 .08.083-.005.187-.08.103-.032.699.005.699.036 0 .146.125.146.278 0 .147.03.387.07.387.042 0 .164.333.196.736.03.408-.08 1.27-.124 1.27-.036 0-.142.095-.142.218 0 .121-.096.264-.22.336-.116.061-.204.24-.19.407.013.166-.056.59-.094.59-.041 0-.133.2-.116.443.012.247-.06.884-.105.884-.036 0-.159.12-.17.276-.02.144.054.615.098.615.036 0 .147.1.147.222s.03.22.068.22c.044 0 .129.11.11.236-.018.128.136.482.252.542.124.064.22.21.22.333 0 .123.031.223.071.223.041 0 .141.097.141.22 0 .122.035.228.071.228.045 0 .161.09.18.202.024.112.364.595.57.763.209.168.486.395.486.44 0 .036.1.143.216.143.123 0 .22.033.22.074 0 .044.092.151.216.151.116 0 .221.032.221.072 0 .039.334.172.743.207h1.107c.412-.035.75-.09.75-.132 0-.036.092-.147.215-.147s.272-.105.333-.225c.054-.12.367-.218.692-.218.328-.008 1.146-.262 1.146-.297 0-.043.097-.148.216-.148.121 0 .226-.032.226-.075 0-.04.032-.148.067-.148.044 0 .15-.037.15-.072 0-.045.09-.15.215-.15.115 0 .212-.035.212-.076 0-.039.24-.159.536-.167.288-.015 1.2-.233 1.2-.268 0-.044.096-.157.22-.157.123 0 .216-.031.216-.075 0-.04.196-.137.442-.123.245.01.861-.057.861-.094 0-.043.195-.146.441-.139.234.009.86-.043.86-.084 0-.039.34-.13.758-.112l1.314-.081c.412.025.75.014.75-.032 0-.036.258-.138.572-.132.314.005 1.161-.047 1.161-.084 0-.038.197-.154.436-.154.241 0 .875.038.875.074 0 .045.158.14.36.12.205-.012.72.061.72.1 0 .04.161.14.35.122.2-.014.738.067.738.106 0 .034.202.12.448.084.253-.032.886.13.93.22.042.08.24.284.356.284.118 0 .215.032.215.077 0 .037.208.133.453.115.254-.023.85.065.85.102 0 .043.116.151.264.151.148 0 .61.035.61.075 0 .036.331.156.742.172.401.012 1.428-.059 1.428-.1 0-.039.337-.128.75-.103l2.618-.044c.41 0 .752-.035.752-.072 0-.043.162-.132.358-.11.191.018.732-.071.732-.106 0-.044.1-.147.223-.133.123.008.423-.055.423-.099 0-.04.097-.145.22-.145.118 0 .216-.035.216-.072 0-.043.086-.139.185-.118.11.015.467-.064.467-.105 0-.039.122-.161.27-.179.148-.014.603.067.603.106 0 .034.09.145.208.145.124 0 .26.067.296.155.043.081.24.288.357.288.123 0 .22.032.22.077 0 .037.1.14.23.125.126-.017.422.055.422.092 0 .043.228.139.516.12.284-.013 1.003.066 1.003.106 0 .036.165.125.375.098.201-.029.705.084.705.119 0 .044.099.153.223.153.118 0 .214.03.214.072 0 .036.106.139.228.126.128-.012.424.054.424.097 0 .036.1.145.215.145.123 0 .215.038.215.074 0 .042.345.17.756.202l1.316.014c.417-.038.757-.1.757-.136 0-.044.103-.154.225-.154.122 0 .574-.153.752-.332.178-.18.294-.673.258-1.098l-.042-.683c-.062-.425-.212-.77-.254-.77M620.899 325.419c0-.186-.024-.336-.068-.336a.408.408 0 0 1-.227-.158c-.037-.088-.232-.284-.35-.284-.115 0-.223-.03-.223-.07 0-.043-.232-.143-.514-.126-.29.014-1.002-.06-1.002-.1 0-.04-.203-.144-.446-.136-.237.007-.857-.049-.857-.086 0-.042-.29-.147-.645-.14-.356.01-1.311-.04-1.311-.086 0-.041-.099-.094-.208-.028-.124.051-.32.1-.441.1-.118 0-.218.035-.218.076 0 .042-.338.182-.754.226 0 0-.271.018-.542-.075l-.42-.144c.112-.053.222-.45.266-.872l-.067-2.213c0-.42-.037-.763-.073-.763-.04 0-.148-.12-.148-.259 0-.144.03-.413.073-.413s.17-.255.203-.561c.032-.307-.092-.99-.128-.99-.04 0-.148-.101-.148-.224 0-.121-.032-.218-.068-.218-.035 0-.13-.127-.104-.276.024-.146-.228-.434-.454-.487-.229-.053-.457-.228-.457-.35 0-.123-.03-.234-.072-.258-.039-.013-.105-.048-.105-.068-.005-.023-.123-.12-.235-.12-.103 0-.447-.03-.447-.076 0-.041-.346-.123-.762-.09l-1.748-.12c-.416.031-.755.029-.755-.008 0-.038-.073-.154-.16-.156-.08-.005-.376.016-.467.056-.092.036-.553.168-.676.168-.117 0-.214.032-.214.079 0 .04-.126.259-.266.39-.148.135-.602.455-.602.5 0 .04-.035.147-.072.147-.043 0-.151.346-.151.771v4.001c0 .427.04.775.075.775.038 0 .148.123.148.27 0 .15.032.395.068.395.042 0 .134.203.118.448-.02.251.06.888.099.888.041 0 .135.299.115.668-.014.372.062 1.327.098 1.327.044 0 .147.35.147.775v.898c0 .423.04.772.081.772.038 0 .142.158.142.35 0 .197-.132.77-.29.78-.153.009.107.2.148.2.038 0 .172.348.203.773l-.061 3.117c0 .426-.05.806-.112.83-.068.032-.071.386-.03.386.038 0 .142.348.142.77v.904c0 .422-.082.817-.183.87-.1.051-.6.12-1.003.12h-8.484c-.41 0-.756-.033-.756-.072 0-.042-.13-.096-.286-.028-.168.062-.579.067-.579.028 0-.042-.267-.153-.597-.164-.33-.008-1.136.054-1.136.087 0 .043-.342.179-.758.216l-3.478-.067c-.418 0-.758-.033-.758-.072 0-.042-.096-.146-.213-.146-.123 0-.223-.035-.223-.072 0-.04-.104-.138-.225-.124-.13.013-.425-.055-.425-.1 0-.038-.099-.151-.215-.151-.123 0-.215-.033-.215-.07 0-.042-.272-.158-.597-.158-.325 0-1.143-.03-1.143-.068 0-.036-.044-.152-.086-.157-.043-.001.037.038.252.097l-.382.128-.282.105c-.319-.056-.59-.136-.59-.173 0-.036-.332-.099-.742-.036l-1.108-.163c-.414.027-.807-.048-.864-.172-.066-.121-.136-.224-.182-.224-.036 0-.14-.03-.14-.073 0-.041-.032-.147-.069-.147-.041 0-.147-.097-.147-.224 0-.118-.029-.213-.073-.213-.039 0-.13-.103-.1-.225.032-.118-.077-.443-.115-.443-.042 0-.13-.11-.109-.241.017-.135-.07-.43-.112-.43-.037 0-.179-.182-.235-.413-.049-.232-.153-.468-.197-.468-.035 0-.152-.024-.152-.041-.007-.024-.245-.411-.281-.411-.039 0-.136-.108-.124-.24.012-.132-.051-.424-.094-.424-.036 0-.152-.179-.16-.399-.012-.214-.3-.714-.424-.714-.116 0-.213-.026-.213-.071 0-.039-.032-.147-.068-.147-.044 0-.15-.1-.15-.222 0-.12-.029-.218-.073-.218-.036 0-.145-.036-.145-.077 0-.037-.095-.125-.208-.09-.113.03-.44-.091-.44-.13 0-.04-.325-.117-.719-.07-.388.045-1.217.23-1.19.34.021.111-.148.517-.266.578-.116.056-.209.272-.202.468.007.195-.266.752-.3.752-.037 0-.15.03-.15.077 0 .034-.185.343-.418.576-.226.24-.479.463-.516.463-.043 0-.152.141-.152.32-.007.181-.248.784-.284.784-.037 0-.136.35-.123.77l-.227 1.346c-.007.421-.044.772-.08.772-.044 0-.197.101-.258.223-.056.118-.332.232-.616.252-.282.013-1.23.22-1.23.262 0 .04-.096.126-.22.094-.11-.036-.48.156-.54.278-.062.12-.14.22-.18.22-.037 0-.246.146-.362.334-.116.18-.25.334-.29.334-.044 0-.146.096-.146.219 0 .12-.032.223-.067.223-.039 0-.161.026-.187.06-.016.036-.206.609-.25.609-.036 0-.148.228-.148.505 0 .284.032 1.042.074 1.042.038 0 .148.104.148.225 0 .123.098.228.215.228.121 0 .361.196.54.437.185.248.504.454.713.466.215.003.916.236.916.28 0 .037.092.16.204.185.104.016.662.22.662.257 0 .036.098.147.222.147.116 0 .215.039.215.073 0 .043.167.15.37.15.209 0 .72-.032.72-.071 0-.04.337-.146.749-.13l2.181-.232c.417-.004.756-.044.756-.084 0-.042.099-.154.217-.154.116 0 .22-.03.22-.065 0-.046.196-.14.44-.12.235.016.856-.067.856-.106 0-.04.222-.172.487-.198.263-.024 1.037-.204 1.037-.247 0-.04.168-.133.364-.113.203.014.724-.066.724-.11 0-.04.172-.164.392-.19.216-.015.692.077.692.114 0 .043.1.148.22.148.116 0 .215-.028.215-.072 0-.04.099-.148.215-.148.117 0 .216-.05.221-.108.005-.056.43-.077.43-.039 0 .04.338.166.753.2l.876-.053c.418 0 .756-.036.756-.07 0-.04.124-.143.272-.135.148 0 .38-.048.38-.092 0-.036.124-.13.27-.108.148.025.596-.072.596-.11 0-.04.172-.133.375-.105.203.024.713-.08.713-.12 0-.041.092-.142.216-.142.116 0 .22-.036.22-.076s.34-.147.758-.147l.872-.064c.417.032.757.096.757.137 0 .039.115.15.259.15.138 0 .606-.036.606-.076s.116-.147.264-.147c.148 0 .61.01.61.032 0 .013.048.035.112.005l.104-.037c.322-.122.342-.122.342-.122.407.066.794.222.856.344a.445.445 0 0 0 .367.212c.143 0 .39-.03.39-.07 0-.04.122-.142.267-.142.148 0 .603.03.603.068 0 .034.099.14.228.128.125-.009.616-.032.855-.094.228-.06.436-.072.436-.034 0 .034.16.14.364.135.196-.013.712-.02.712-.06 0-.041.24-.06.53.047.292.104 1.232-.026 1.26-.094.022-.06.386-.066.386-.028 0 .034.338.178.75.208l3.055.103c.417.033.773.108.797.16.026.06.204.344.243.344.041 0 .147.101.147.22 0 .123.03.223.066.223.044 0 .136.093.118.209-.013.11.07.455.11.455.038 0 .142.105.142.226 0 .128.03.222.075.222.034 0 .146.129.157.285.008.16.333.684.499.785.16.096.349.364.349.484 0 .118.141.319.315.432.166.116.344.264.344.308 0 .039.117.131.265.106.148-.019.595.072.595.112 0 .041.21.172.46.196.253.032.844-.076.844-.115 0-.043.105-.148.222-.148.115 0 .214-.039.214-.077 0-.042.097-.195.214-.251a.442.442 0 0 0 .23-.345c0-.116.14-.318.312-.44.182-.12.345-.507.369-.858.012-.353.21-1.358.253-1.358.036 0 .139-.124.139-.262 0-.149.032-.409.07-.409.042 0 .15-.177.15-.396 0-.219-.045-.539-.108-.599-.061-.06-.08-.11-.043-.11.043 0 .15-.112.15-.236 0-.127.026-.435.077-.435.044 0 .14-.113.14-.256 0-.143-.028-.415-.066-.415-.042 0-.136-.228-.125-.52.013-.294-.06-1.029-.104-1.029-.033 0-.085-.21-.021-.467.065-.264.065-1.314.021-1.314-.033 0-.17-.339-.208-.76l.067-.68c0-.426.032-.771.07-.771.042 0 .164-.093.183-.205.023-.114.215-.686.257-.686.04 0 .1-.257.043-.574-.055-.316.179-1.018.267-1.067.09-.048.27-.17.27-.21 0-.038.096-.15.22-.15.117 0 .253-.073.3-.17.046-.095.566-.014.566.027 0 .035.099.143.215.143.117 0 .216-.024.216-.07 0-.04.093-.138.197-.126.11.008.461-.056.461-.099 0-.038.09-.146.208-.146.124 0 .215.034.215.069 0 .047.132.156.277.156.155 0 .596-.036.596-.079 0-.038.106-.146.235-.146.117 0 .417.034.417.069 0 .047.116.156.272.156.142 0 .379-.036.379-.079 0-.038.267-.146.59-.146.314 0 1.145-.034 1.145-.071 0-.039.096-.155.22-.155.117 0 .22-.025.22-.07 0-.04.096-.19.204-.24.116-.046.228-.224.228-.347 0-.123.098-.277.213-.337.124-.064.212-.363.192-.666-.01-.306.056-1.004.105-1.004.03 0 .154-.348.172-.768 0 0 .08-.714.118-1.136.036-.418.029-.757-.008-.757-.036 0-.147-.377-.147-.552" style="fill:#fff;fill-opacity:1;fill-rule:nonzero;stroke:none;stroke-width:.133333" transform="translate(-263.368 -294.945)"/><path d="M568.156 319.903c0 .162.097.349.215.41.124.06.21.216.196.343-.011.13.056.432.093.432.043 0 .165.084.197.19.03.105.362.44.608.398l.215.076.099.039c.054.028.109.042.109.025s.13-.081.284-.097c.15-.02.59.065.59.106 0 .04.1.152.215.152.123 0 .214.03.214.071 0 .041.125.132.272.119.141-.019.602.062.602.106 0 .035.164.132.364.116.2-.013.718.063.718.1 0 .042.124.167.277.18.152.018.59-.062.59-.102 0-.042.098-.15.22-.15.117 0 .315-.144.431-.328.118-.184.475-.337.775-.337.3 0 .964-.028.964-.075 0-.037.339-.148.756-.148l1.093-.042c.419.022.758.077.758.118 0 .038.098.147.218.147.124 0 .432-.028.432-.075 0-.037.339-.148.758-.148l2.181-.064c.412.035.75.103.756.147 0 .05.01.112.037.09.019-.011.184.346.196.703.014.364-.053 1.354-.098 1.354-.038 0-.128.328-.118.736.015.405-.054 1.476-.092 1.476-.041 0-.177.338-.208.757-.032.421.094 1.464.13 1.464.037 0 .146.121.146.272 0 .147.031.61.067.61.044 0 .124.151.088.331-.032.182.099.56.141.56.031 0 .242.155.351.336.123.182.319.338.441.338.123 0 .368.264.559.585l.087.072.056.043c.332.102.602.285.602.408 0 .116.135.309.307.421.179.119.345.344.345.463 0 .122.03.224.067.224.043 0 .197.093.259.218.056.123.201.226.318.226.123 0 .271.094.327.226.06.116.45.187.86.147l.24-.03c.417-.067.75-.153.75-.198 0-.039.1-.145.214-.145.119 0 .233-.056.245-.122.027-.065.223-.546.259-.546.044 0 .15-.103.15-.222 0-.122.03-.224.066-.224.043 0 .148-.098.148-.222 0-.119.03-.216.067-.216.042 0 .148-.103.148-.226 0-.12.037-.225.073-.225.037 0 .121-.273.105-.61-.025-.337.072-1.16.111-1.16.043 0 .128-.123.117-.275-.026-.151.06-.619.098-.619.044 0 .146-.103.146-.23 0-.129.034-.43.067-.43.045 0 .135-.28.117-.619-.016-.338.071-1.16.106-1.16.036 0 .146-.202.146-.452 0-.245.032-.88.07-.88.042 0 .11-.29.066-.652-.048-.358.18-1.18.302-1.236a.421.421 0 0 0 .216-.333c0-.12.098-.223.22-.223.116 0 .216-.036.216-.072 0-.04.09-.19.21-.245a.444.444 0 0 0 .227-.348c0-.123.087-.235.201-.243.111-.01.45-.288.462-.39.013-.111.23-.476.27-.476a.356.356 0 0 0 .227-.163c.04-.093.228-.276.352-.276a.23.23 0 0 0 .221-.225c0-.126.031-.228.067-.228.044 0 .13-.343.105-.771 0 0 .08.028-.005-.332-.094-.372-.272-.717-.388-.777a.413.413 0 0 1-.217-.332c0-.127-.03-.227-.067-.227-.042 0-.153-.345-.153-.773 0 0 0-.139-.216-.559-.043-.09-.343-.136-.43-.225-.227-.204-.327-.407-.327-.407-.183-.385-.422-.699-.539-.699-.119 0-.216-.034-.216-.069 0-.04-.084-.168-.196-.185-.105-.024-.677-.222-.677-.266 0-.034.013-.089.032-.022.018.066-.468.066-.468.022 0-.034-.11-.138-.251-.133-.14 0-.4-.047-.4-.084 0-.04-.339-.173-.75-.207 0 0-.91-.066-1.42.06l-.367.082c-.031.193-.192.396-.352.445-.155.048-.371.168-.371.21 0 .042-.244.14-.556.133-.301-.005-1.224.334-1.279.457-.062.128-.454.241-.866.267 0 0-.468.181-.88.181-.419 0-.748-.076-.748-.17 0-.085-.051-.131-.114-.094l-.109.041c-.245.08-.332.071-.332.071-.412-.04-.756-.108-.756-.145 0-.042-.112-.151-.253-.154-.134-.004-.399.036-.399.076 0 .044-.272.127-.608.096-.339-.036-1.124.087-1.124.127 0 .04-.092.15-.19.15-.111 0-.462.035-.462.073 0 .037-.119.144-.264.144-.155 0-.604-.032-.604-.068 0-.04-.263-.156-.59-.163-.318-.015-1.142.05-1.142.087 0 .037-.35.17-.75.198l-1.107-.054c-.411 0-.748-.032-.748-.068 0-.04-.124-.136-.272-.114-.148.01-.603-.068-.603-.11 0-.04-.084-.135-.197-.115-.103.016-.448-.068-.448-.105 0-.042-.172-.168-.376-.195-.202-.03-.711.077-.711.117 0 .044-.105.152-.223.152-.117 0-.214.03-.214.07 0 .04-.179.118-.4.08-.22-.036-.683.106-.683.144 0 .037-.097.144-.22.144a.315.315 0 0 0-.283.202c-.03.11-.184.248-.222.248-.044 0-.134.11-.123.24.013.13-.056.426-.09.426-.04 0-.162.309-.19.692-.02.38-.143 1.75-.099 1.75.036 0 .14.43.14.59M672.788 332.532l-.136-1.13c-.05-.423-.09-1.117-.104-1.542l-.19-5.113c-.014-.423-.043-.918-.08-1.103-.042-.187-.137-.445-.123-.565.018-.126-.056-.439-.091-.439-.044 0-.148-.139-.148-.307v-.581c0-.123.013-.388.023-.59.013-.215-.06-.943-.108-1.191-.051-.25-.16-1.163-.192-1.502-.036-.348-.191-1.157-.227-1.157-.039 0-.148-.116-.141-.255.005-.146.009-.601.042-.834.028-.228.27-.835.386-1.018a.913.913 0 0 1 .63-.373c.232-.027.71-.273.759-.372.05-.112.18-.353.241-.476a.52.52 0 0 1 .358-.264c.133-.028.398-.277.398-.403 0-.12.148-.372.318-.558.184-.18.541-.302.796-.263l.189-.067.303-.104c.177-.078.586-.108.92-.061.332.05 1.302.192 1.48.217.18.03.697.368.881.619.172.239.455.692.615.995.158.306.436.752.54.997.104.241.252.607.252.812 0 .199-.03.74-.075.74-.035 0-.123.241-.103.524.019.277.079.64-.044.703-.122.06-.196.276-.172.482.018.212-.049.835-.073.96-.019.12.035.371.035.555 0 .179.106.356.241.39.13.03.505.313.621.494.124.185.32.336.438.336.121 0 .22.035.22.08 0 .041.338.161.757.18h1.745c.411-.019.804-.161.866-.323.062-.153.756-.129.756-.082 0 .04.29.258.653.392l.22.194.048.047c.088.217.259.401.376.401.124 0 .307.135.412.3.099.175.436.514.683.696.234.184.441.686.453 1.106l-.068 1.808c-.099.409-.317.854-.496.972-.187.122-.344.369-.356.542-.02.176-.279.578-.39.596-.102.008-.455.227-.455.268 0 .047-.091.22-.207.311-.11.087-.443.312-.443.359 0 .04-.332.145-.756.146l-1.573.08-.855-.061a1.407 1.407 0 0 0-.308.03c-.104.027-.232.102-.277.114-.05.015-.373.025-.619-.008-.246-.03-.866.167-.93.29-.06.114-.208.22-.324.22-.118 0-.32.05-.432.11-.12.063-.403.147-.632.199-.234.041-.47.182-.547.302-.068.12-.128.36-.123.527 0 .164-.018.69-.034.745-.022.064.029.458.029.888l.183 5.116c.021.422.021.844-.012.926-.023.093.025.23.088.33.06.094.177.338.177.534 0 .194.005.952.019 1.19 0 .24-.062 1.248-.118 1.663l-.252 1.799c-.044.421-.18.866-.302.986-.116.128-.411.254-.65.3-.233.046-.621.346-.856.583-.226.239-.981.903-1.106.912-.128.013-.52-.064-.638-.132a.892.892 0 0 1-.326-.327c-.06-.124-.21-.228-.326-.228a.92.92 0 0 1-.442-.15c-.124-.094-.676-.392-.714-.515-.036-.117-.185-.365-.221-.552-.044-.185-.177-.483-.215-.665-.04-.183-.149-.683-.149-1.11v-9.109c0-.427.019-.924.04-1.108.016-.181-.04-.341-.04-.361 0-.018.008-.03.008-.067M637.599 323.345c.129-.017.24-.007.24.036 0 .04.196.156.437.166.24.012.859-.05.859-.09 0-.038.332-.166.744-.19.412-.026 1.426.072 1.426.114 0 .04.232.147.516.147.284 0 1.004.037 1.004.075 0 .044.227.136.508.125.276-.015 1.015.06 1.015.101 0 .04.319.14.719.14.393 0 1.45.035 1.45.076 0 .042.339.151.756.151l2.183.028c.41-.016.756-.064.756-.101 0-.042.272-.123.61-.087.343.035 1.142-.101 1.167-.153.018-.048.386-.095.386-.054 0 .04.233.14.51.14.284 0 1.01-.025 1.01-.072 0-.04.084-.138.19-.138.103 0 .46.03.46.07 0 .04.159.054.35-.05l.086-.02c1.12-.284 2.724-.092 2.724-.092.411.048.755.056.755.02 0-.048.088-.146.197-.128.11.018.448-.062.448-.102 0-.038.1-.154.223-.154.116 0 .263-.09.319-.22.06-.118.209-.22.326-.22.115 0 .222-.028.222-.072s.09-.15.214-.15c.116 0 .306-.14.418-.308.11-.164.272-.356.308-.356.034 0 .128-.169.116-.372-.014-.204.061-.74.1-.74.036 0 .158-.168.177-.36.017-.209-.061-.754-.107-.754-.034 0-.134-.086-.126-.196 0-.106-.119-.468-.235-.468-.116 0-.221-.03-.221-.075 0-.035-.092-.148-.202-.152-.118-.008-.442-.315-.442-.441a.225.225 0 0 0-.222-.219c-.117 0-.216-.032-.216-.072 0-.044-.129-.13-.296-.113-.157.021-.57-.067-.57-.107 0-.037-.099-.15-.222-.15-.118 0-.209.033-.209.073 0 .04-.116.153-.253.153-.14.003-.406-.036-.406-.076 0-.037-.336-.116-.749-.07l-1.965-.08c-.419 0-.751-.029-.751-.073 0-.038-.099-.146-.223-.146-.121 0-.225-.036-.232-.067-.012-.036-.036-.11-.068-.11-.018 0-.134-.149-.134-.269 0-.125-.032-.222-.068-.222-.043 0-.123-.35-.098-.77l-.289-1.568c.005-.426-.063-.809-.167-.856-.105-.049-.241-.172-.241-.21 0-.04-.11-.372-.237-.648l-.204-.17-.195-.153c-.364-.039-.721-.17-.783-.29-.056-.12-.202-.22-.318-.22-.123 0-.272-.1-.331-.222-.056-.119-.445-.237-.863-.255 0 0-.269-.018-.761-.189l-.105-.036c-.043-.033-.123-.047-.159-.033-.043.022-.273.07-.388.07-.124 0-.221.03-.221.07 0 .038-.099.148-.215.148-.117 0-.216.037-.216.074 0 .04-.097.151-.215.151-.124 0-.269.097-.332.223-.053.117-.386.22-.732.217-.349-.004-1.112.257-1.112.297 0 .036-.097.147-.213.147a.224.224 0 0 0-.216.224.385.385 0 0 1-.184.319c-.105.044-.252.226-.252.352 0 .12-.032.222-.068.222-.044 0-.121.298-.093.672.03.368-.084 1.318-.122 1.318-.042 0-.178.166-.205.365-.028.203-.324.841-.527.953l-.065.02c-1.225.295-3.384.08-3.384.08-.41-.044-.75-.049-.75-.005 0 .04-.215.06-.485-.05-.269-.11-1.026.007-1.026.05 0 .04-.087.21-.178.284-.1.08-.474.34-.474.38 0 .04-.098.15-.222.15a.333.333 0 0 0-.289.198c-.041.107-.176.24-.215.24-.036 0-.148.106-.148.228 0 .12-.03.218-.065.218-.043 0-.143.105-.13.234.006.128-.049.432-.093.432-.042 0-.136.127-.116.28.011.151 0 .615.043.615.036 0 .128.203.11.46-.018.256.062.865.105.865s.147.127.147.28c0 .154.037.62.08.634.038.016.112.053.112.077.005.03.122.12.238.12.123 0 .272.103.332.22.063.13.394.292.523.263M381.621 324.861c.038 0 .067.1.067.222 0 .12.04.222.076.222.043 0 .167.346.176.768l.181 1.126c.003.425.042.773.078.773.045 0 .132.172.098.385-.022.207.082.718.118.718.041 0 .148.105.148.225 0 .125.029.225.073.225.036 0 .123.088.092.203-.024.112.152.51.27.573.123.06.223.299.229.527.005.23.24.693.276.693.036 0 .289.202.473.442.177.246.424.446.541.446.116 0 .22.031.22.078 0 .033.094.144.21.144.122 0 .221.032.221.07 0 .042.092.154.216.154.123 0 .22.033.22.066 0 .04.19.096.425.032l.222.12.017.007c.112.242.303.431.43.422.123-.012.74.39.86.574.118.182.315.331.431.331.123 0 .215.035.215.073 0 .044.29.167.64.188.35.02 1.53.222 1.53.256 0 .043.338.154.757.154l1.316.041c.417-.024.749-.076.749-.119 0-.041.203-.138.443-.116.24.015.86-.062.86-.105 0-.044.165-.137.362-.127.208.015.726-.057.726-.097 0-.036.122-.125.269-.095.153.023.596-.085.596-.122 0-.042.1-.156.221-.156.123 0 .216-.026.216-.067 0-.041.091-.128.204-.103.103.031.498-.148.559-.268.064-.121.245-.2.405-.162.166.029.616-.163.675-.283a.43.43 0 0 1 .365-.219c.135.008.663-.326.726-.449.06-.119.201-.221.324-.221.117 0 .221-.031.221-.078 0-.04.104-.252.241-.381.14-.13.627-.463.627-.5 0-.039.11-.17.239-.193.136-.028.453-.279.517-.402.06-.12.203-.217.319-.217.122 0 .228-.036.228-.077 0-.038.097-.151.214-.151.118 0 .216-.03.216-.07 0-.04.176-.285.399-.44.221-.155.467-.475.467-.6 0-.12.097-.262.208-.31.112-.05.222-.23.222-.359 0-.12.038-.22.074-.22.042 0 .204-.098.26-.22a.39.39 0 0 1 .324-.22c.117 0 .204-.116.185-.249-.025-.133.176-.519.357-.636.176-.123.312-.365.294-.532-.012-.164.062-.584.098-.584.043 0 .179-.348.21-.77l-.063-2.23c0-.425-.03-.776-.073-.776-.036 0-.134-.125-.123-.27.013-.162-.055-.611-.092-.611s-.124-.207-.092-.464c.032-.254-.085-.87-.123-.87-.036 0-.142-.105-.142-.229 0-.117-.036-.219-.075-.219-.041 0-.12-.109-.104-.248.027-.137-.072-.418-.115-.418-.038 0-.184-.07-.222-.152-.043-.094-.171-.295-.21-.295-.042 0-.146-.099-.146-.219s-.1-.269-.222-.329c-.116-.063-.222-.301-.234-.519-.012-.228-.288-.708-.406-.708a.293.293 0 0 1-.27-.218c-.024-.123-.203-.446-.244-.446-.036 0-.18-.07-.216-.158-.043-.091-.24-.284-.356-.284-.123 0-.344-.32-.492-.727 0 0-.036-.076-.167-.161-.275-.188-.33-.19-.33-.19-.413-.02-.75-.065-.75-.105 0-.04-.125-.153-.277-.153-.143 0-.64-.318-.7-.436-.063-.127-.2-.196-.314-.163-.112.028-.454-.097-.454-.136 0-.04-.12-.14-.266-.125-.148.02-.602-.064-.602-.1 0-.04-.124-.134-.267-.123-.145.008-.601-.053-.601-.095 0-.04-.134-.128-.302-.102-.164.024-.613-.15-.668-.27-.049-.116-.24-.245-.4-.265-.166-.017-.628-.283-.681-.4-.063-.125-.205-.201-.321-.173-.103.022-.492-.15-.552-.275-.063-.121-.278-.21-.48-.19-.21.017-.72-.062-.72-.1 0-.042-.091-.151-.196-.151-.111 0-.375.048-.34.106l-.331.116c-.577.2-1.197.104-1.197.104-.42-.058-.758-.073-.758-.033 0 .039-.017.203-.054.261-.032.067-.404.555-.448.555-.036 0-.174.088-.211.193-.035.114-.183.248-.225.248-.032 0-.142.106-.142.224 0 .126-.032.228-.07.228-.042 0-.176.091-.226.198-.037.113-.417.238-.757.238-.336-.003-1.332.258-1.332.3 0 .04-.056.17-.123.204-.061.03-.412.171-.534.171a.348.348 0 0 0-.302.208.457.457 0 0 1-.345.23c-.121 0-.22.034-.22.075 0 .04-.16.332-.356.55-.197.222-.95.74-.95.782 0 .038-.122.14-.28.136-.162-.009-.369.331-.369.452 0 .13-.15.324-.318.45-.187.12-.33.318-.33.445 0 .12-.102.27-.218.332-.124.06-.198.35-.174.656.019.3-.073 1.005-.112 1.005-.033 0-.156.163-.17.354-.02.193-.228.98-.271.98-.036 0-.08.146 0 .326.081.18.043.786 0 .786-.036 0-.148.097-.148.217 0 .125-.03.223-.067.223-.034 0-.177.352-.214.77l.037.9c.023.431.143.774.177.774m6.368-1.278c0-.156.032-.28.067-.28.043 0 .148-.11.148-.26 0-.14.032-.404.068-.404.043 0 .13-.128.105-.278-.024-.15.079-.61.118-.61.036 0 .128-.109.102-.237-.024-.132.075-.427.11-.427.045 0 .156-.097.156-.222 0-.124.03-.223.068-.223.037 0 .148-.096.148-.216 0-.123.14-.325.31-.441.174-.118.432-.382.555-.563.116-.188.307-.31.417-.284.11.033.499-.152.559-.273.056-.118.29-.218.512-.218.228 0 .683-.033.683-.077 0-.039.22-.152.502-.152.278 0 1.022.04 1.022.075 0 .045.25.141.569.13.315-.016 1.163.055 1.163.095 0 .043.134.124.309.095.165-.03.559.085.559.125 0 .039.036.148.072.148.038 0 .14.03.14.075 0 .039.1.152.222.152.123 0 .216.1.216.219 0 .124.098.274.22.336.119.06.228.269.25.462.016.199.214.758.249.758.044 0 .15.1.15.225 0 .119.035.216.071.216.038 0 .13.125.099.276-.024.155.08.612.116.612.045 0 .143.103.143.223 0 .122.036.222.074.222.042 0 .148.103.148.22 0 .13.03.446.072.446.044 0 .147.24.147.53 0 .279-.036 1.024-.073 1.024-.036 0-.146.098-.146.223a.323.323 0 0 1-.2.288c-.109.03-.452.185-.452.224 0 .043-.093.153-.216.153-.122 0-.222.03-.222.07 0 .042-.116.128-.266.1-.15-.031-.601.084-.601.132 0 .037-.103.124-.227.102-.129-.018-.418.072-.418.111 0 .045-.086.163-.19.18-.098.02-.681.227-.681.267 0 .04-.099.154-.216.154a.396.396 0 0 0-.325.22c-.063.12-.203.194-.308.167-.111-.027-.448.087-.448.124 0 .041-.099.15-.223.15-.123 0-.22.033-.22.074 0 .035-.332.179-.745.21l-1.32-.009c-.419-.025-.758-.08-.758-.126 0-.042-.09-.15-.213-.15-.116 0-.216-.032-.216-.073 0-.04-.1-.147-.216-.147-.123 0-.221-.029-.221-.072 0-.04-.142-.25-.319-.368-.187-.122-.325-.345-.325-.494 0-.156-.319-.674-.438-.732-.122-.062-.202-.35-.185-.646.013-.289-.067-1.018-.103-1.018-.041 0-.148-.463-.148-.612" style="fill:#fff;fill-opacity:1;fill-rule:nonzero;stroke:none;stroke-width:.133333" transform="translate(-263.368 -294.945)"/><path d="M357.547 342.993c0 25.475-20.652 46.13-46.128 46.13-25.475 0-46.127-20.655-46.127-46.13 0-25.477 20.652-46.13 46.127-46.13 25.476 0 46.128 20.653 46.128 46.13" style="fill:#fff;fill-opacity:1;fill-rule:nonzero;stroke:none;stroke-width:.133333" transform="translate(-263.368 -294.945)"/><path d="M311.419 381.615c21.329 0 38.621-17.291 38.621-38.619 0-21.333-17.292-38.625-38.621-38.625-21.33 0-38.622 17.292-38.622 38.625 0 21.328 17.292 38.619 38.622 38.619" style="fill:#008940;fill-opacity:1;fill-rule:nonzero;stroke:none;stroke-width:.133333" transform="translate(-263.368 -294.945)"/><path d="M311.419 294.945c-26.538 0-48.051 21.514-48.051 48.051 0 26.535 21.513 48.047 48.05 48.047 26.535 0 48.047-21.512 48.047-48.047 0-26.537-21.512-48.05-48.046-48.05m0 92.518c-24.56 0-44.471-19.91-44.471-44.468 0-24.561 19.91-44.472 44.47-44.472 24.558 0 44.47 19.91 44.47 44.472 0 24.559-19.912 44.468-44.47 44.468" style="fill:#008940;fill-opacity:1;fill-rule:nonzero;stroke:none;stroke-width:.133333" transform="translate(-263.368 -294.945)"/><path d="m332.24 340.932.008-1.016.033-3.54h-6.89V333.9h6.89v-5.75h-41.857v5.75h6.42v2.476h-6.42v5.73h33.765v2.291h7.692l.346-2.325.013-1.14m-27.241-7.032h12.237v2.476h-12.237V333.9M333.15 353.828h-3.247v-7.357h-7.72v26.094h7.72v-11.662h3.246v-7.075M308.076 349.665v-3.194h-7.72v1.126c-.104 3.503-1.237 14.328-11.135 19.335l4.815 4.947s7.62-5.348 9.895-11.368c0 0 4.582 9.408 11.67 11.681l3.843-5.127s-10.599-4.272-11.368-17.4M332.213 319.188c0-3.667-2.64-6.67-6-6.97v-.03h-28.656c-3.618 0-6.554 3.136-6.554 7 0 3.867 2.936 7 6.554 7 .063 0 .122-.008.18-.008h27.742c.06 0 .122.008.181.008.063 0 .12-.008.183-.008h.437v-.027c3.33-.332 5.933-3.321 5.933-6.965m-9.074 1.517h-23.003c-.452-.253-1.02-.82-1.02-1.521 0-.703.568-1.27 1.27-1.27h23c.7 0 1.273.567 1.273 1.27 0 .701-.27 1.612-1.52 1.521" style="fill:#fff;fill-opacity:1;fill-rule:nonzero;stroke:none;stroke-width:.133333" transform="translate(-263.368 -294.945)"/></svg>